<?xml version="1.0" standalone="no"?>
<svg version="1.1" id="Layer_1" xmlns="http://www.w3.org/2000/svg" xmlns:xlink="http://www.w3.org/1999/xlink" x="0px" y="0px" width="595.276px" height="595.276px" viewBox="0 0 595.276 595.276" enable-background="new 0 0 595.276 595.276" xml:space="preserve">
<path id="color_x5F_7" fill-rule="evenodd" clip-rule="evenodd" fill="#E96257" d="M253.554,376.277l2.782,31.743l-4.703-2.139
	l-2.852-30.297L253.554,376.277z M341.367,264.955l0.256,6.03l7.292-0.31l-0.256-6.03L341.367,264.955z M208.906,458.849
	l5.321,0.972l-1.426-9.03l-5.596-1.079c-1.647-9.995-6.378-39.036-7.513-46.606c-0.863,0.141-1.892,0.2-3.139,0.054
	c-0.324-0.038-0.954-0.095-1.815-0.165c1.18,7.843,5.738,35.9,7.354,45.731l-49.419-9.528l-2.459-18.151l-2.981-21.39
	c-3.109-0.209-5.2-0.349-5.681-0.381l17.934,126.939l5.035,0.426l-10.545-77.83l53.438,9.764l10.838,74.303l4.828,0.249
	l-11.584-73.604L208.906,458.849z M222.782,453.762l-3.089,2.376l4.455,28.158l4.812,0.356l-4.277-28.337L222.782,453.762z
	 M141.274,356.901c4.345-6.394,7.737-6.53,7.737-6.53l0.462-5.455c-10.916,4.147-14.037,11.068-14.037,11.068l5.361,37.943
	c0.153-0.439,0.362-0.894,0.642-1.361c0,0,2.019-1.316,4.458-2.503L141.274,356.901z M472.406,97.564l-359.32,50.54l-8.521,4.589
	l1.092,1.717l358.67-49.717L472.406,97.564z M124.665,184.28l2.188,3.439l0.998,1.331l347.406-14.495l6.891-6.178L124.665,184.28z"></path>
<path id="color_x5F_5" fill-rule="evenodd" clip-rule="evenodd" fill="#FFD2BB" d="M213.995,361.506l8.504-13.931
	c0,0,51.163,7.992,54.468,12.216s6.606,11.828,3.079,16.883c-5.044,7.229-7.092,3.908-9.164,1.76s-5.696-12.597-5.696-12.597
	S234.009,371.37,213.995,361.506z M233.695,323.483c3.605-2.653,2.548-16.102,1.289-16.208c-1.259-0.107-1.259-0.107-4.303,0.904
	c-3.044,1.01-3.079,1.43-6.82,0.691c-3.741-0.739-4.929-1.685-5.945,0.342c-1.017,2.027,0.029,4.651,0.029,4.651
	s-28.44,35.868-36.39,52.91c-0.187,0.401-1.385,0.069-2.541,1.381c-6.282,7.129-10.426,16.574-10.426,16.574
	s17.367,13.243,25.309,4.519c10.716-11.771,28.674-64.169,28.674-64.169S230.089,326.136,233.695,323.483z M270.084,519.056
	c-1.821,1.56-2.742,4.818-3.19,7.178c5.618,0.039,10.282-0.338,9.629-1.382C275.693,523.526,273.536,521.301,270.084,519.056z
	 M254.611,467.495l-0.294,0.068c-6.415,5.697-19.68,4.58-19.68,4.58s8.78,34.411,13.29,44.371c0,0-0.265,6.458,1.855,8.046
	c0.793,0.594,4.943,1.117,9.749,1.415c0.578-5.021,2.642-8.574,3.955-10.375c-1.276-0.534-2.63-1.04-4.086-1.495L254.611,467.495z
	 M278.135,445.957c-4.469,1.115-11.239,2.067-17.995,0.238l-1.121,0.015c0,0-0.467,16.759,1.953,44.845c0,0-1.949,6.162-0.32,8.25
	c0.711,0.912,5.864,1.95,11.376,2.607c0.829-3.976,2.608-6.768,3.758-8.237c-0.965-0.587-2-1.228-3.111-1.937l6.862-45.798
	L278.135,445.957z M286.391,501.457c-0.456-1.507-1.971-2.628-4.751-4.305c-1.392,1.183-2.268,3.408-2.794,5.346
	C283.284,502.713,286.7,502.479,286.391,501.457z M174.901,301.453c-1.146,0.008-2.249-0.044-3.303-0.159l2.642,10.642
	c0,0,9.978,4.437,10.779,7.463c0.8,3.026,7.017,9.469,7.017,9.469s1.866-9.562,2.026-11.45s-1.025-5.369-2.212-6.315
	c-1.113-0.886-0.653-7.208-0.591-7.998c1.244-0.491,2.462-1.179,3.629-2.099c9.358-7.378,8.366-15.633,8.009-28.059
	s-4.781-16.745-4.781-16.745l-1.38,0.735c-2.205,4.45-3.543,8.861-5.643,10.666c-3.736,3.213-17.97,4.229-22.823,4.486l-3.492,1.859
	l3.092,6.742c1.954,3.546,2.276,6.391-0.986,4.988s-6.058,0.127-4.39,5.263c1.689,5.2,6.292,5.618,6.796,5.648
	C169.737,297.403,171.33,299.884,174.901,301.453z"></path>
<path id="color_x5F_4" fill-rule="evenodd" clip-rule="evenodd" fill="#fd6274" d="M159.158,450.059l9.914,72.742l-3.641,3.073
	l-11.144-76.706L159.158,450.059z M483.099,168.139l-7.842,6.416l2.139,30.653l7.604-7.842L483.099,168.139z M472.406,97.921
	l-8.075,7.282l3.624,33.338l8.015-9.966L472.406,97.921z M454.109,139.842l-38.201-27.987l-61.238,8.392l37.963,27.532
	L454.109,139.842z M239.016,214.027l61.307-2.376l35.924-30.701l-61.426,2.495L239.016,214.027z M331.396,156.169l-37.564-27.14
	l-60.713,8.198l37.04,27.333L331.396,156.169z M208.531,172.421l-36.006-26.857l-65.584,9.03l36.006,26.857L208.531,172.421z
	 M222.782,453.762c0,0-0.913-1.98-2.001-2.654c-1.088-0.673-5.484-2.218-5.484-2.218l-2.139,1.545l1.746,8.963l-0.677,0.423
	l-1.71-0.37l-0.488-0.105l11.228,73.426l3.357-3.833l-10.476-70.244L222.782,453.762z M225.574,458.812l3.921,25.485l2.917-3.889
	l-2.204-14.635L225.574,458.812z M166.883,285.676c3.262,1.403,2.939-1.442,0.986-4.988l-3.092-6.742l-14.701,10.589
	c0,0,5.354,17.07,24.262,16.698c0,0-3.208-1.025-5.792-4.567c0,0-4.472-0.288-6.26-5.792
	C160.616,285.738,163.621,284.273,166.883,285.676z M265.141,365.846c-0.922,0.16-29.252,4.989-48.94-3.339l-2.717-0.168
	c0.728,3.151,1.67,6.914,2.656,10.727c14.31,0.969,36.838,2.515,39.495,2.828c3.93,0.462,5.779-1.156,5.779-1.156l5.444-4.411
	c-0.88-2.237-1.541-4.118-1.652-4.437C265.184,365.876,265.162,365.86,265.141,365.846z M201.871,447.584c0,0-0.2-1.219-0.531-3.247
	c-2.951-0.789-6.2-1.612-9.782-2.463c-16.571-3.938-26.815-10.112-26.815-10.112l-1.663,2.733l-2.352-2.837
	c-5.284,2.511-7.806,7.293-7.806,7.293l49.117,9.44c-0.042-0.258-0.086-0.526-0.132-0.804L201.871,447.584z M215.237,448.586
	c-2.289-0.84-5.181-1.779-8.677-2.796c0.22,1.335,0.417,2.535,0.588,3.569l5.661,1.074L215.237,448.586z M205.956,391.989
	l-54.58-3.355l-2.365-38.262c0,0-3.392,0.135-7.737,6.53l4.622,33.163c-2.438,1.186-4.458,2.503-4.458,2.503
	c-2.234,3.724,0,6.703,0,6.703s2.233,0.149,5.795,0.388l2.981,21.39c0,0,1.123-3.286,5.077-5.064l-2.965-15.945
	c15.349,1.039,41.351,2.783,44.227,3.121c4.221,0.497,6.207-1.241,6.207-1.241l6.596-5.344
	C208.115,392.355,205.956,391.989,205.956,391.989z M178.703,215.426l33.861-29.604l-66.61,2.963l-11.835,10.352l11.414,17.936
	L178.703,215.426z M375.182,198.268l7.172-0.666c0,0,7.039,2.338,11.329,10.35l30.206-1.054l36.68-31.184l-62.063,2.621
	L375.182,198.268z"></path>
<path id="color_x5F_3" fill-rule="evenodd" clip-rule="evenodd" fill="#ff8383" d="M123.099,142.713l0.535,3.149l-7.129,1.247
	L123.099,142.713z M207.573,281.914c0,0-3.851,9.132,3.707,16.461l4.544-0.129c-8.146-7.754-3.983-17.628-3.983-17.628
	L207.573,281.914z M347.236,279.093l-2.915,2.103l1.254,10.108l5.303-4.206c0,0,2.073-2.314,0.812-5.474
	C350.22,277.938,347.236,279.093,347.236,279.093z M308.435,268.284c5.217,2.245,7.615,1.557,7.615,1.557l-1.013-5.902
	L308.435,268.284z M97.436,173.129c0-2.362-1.915-4.277-4.277-4.277s-4.277,1.915-4.277,4.277s1.915,4.277,4.277,4.277
	C95.521,177.406,97.436,175.491,97.436,173.129z M96.723,200.693c-2.362,0-4.277,1.915-4.277,4.277s1.915,4.277,4.277,4.277
	S101,207.333,101,204.97S99.085,200.693,96.723,200.693z M276.5,307.52c8.852-1.008,13.902-14.442,12.802-30.146
	c-1.283-18.326-9.845-27.951-18.696-26.943c-8.852,1.008-15.604,16.133-13.823,31.774C258.565,297.847,267.649,308.528,276.5,307.52
	z M336.747,226.84c2.523-0.26,4.275-3.322,3.913-6.84c-0.362-3.518-2.701-6.16-5.224-5.9c-2.523,0.26-4.275,3.322-3.913,6.84
	C331.884,224.458,334.223,227.1,336.747,226.84z M376.526,226.987c2.113-0.217,3.581-2.783,3.277-5.729s-2.262-5.159-4.375-4.942
	s-3.581,2.783-3.277,5.729C372.454,224.992,374.413,227.205,376.526,226.987z M435.426,261.177
	c-2.179-5.123-4.471-3.815-4.471-3.815s-7.047,11.991,0.806,21.621c0,0,2.799,1.559,3.938-1.382
	C436.838,274.66,438.059,267.367,435.426,261.177z M207.218,245.842l-0.233,0.115l2.226-0.425
	C208.04,245.63,207.218,245.842,207.218,245.842z M200.802,259.842c1.069,2.852,1.663,5.465,1.663,5.465s15.152-6.47,14.784-13.826
	c-0.283-5.643-4.998-6.17-7.862-5.964c-6.436,1.497-9.019,5.239-11.437,9.928C197.951,255.446,199.733,256.99,200.802,259.842z
	 M256.363,465.108c0,0-0.551-9.583-1.977-15.167c-1.426-5.584-5.819-14.23-5.819-14.23c5.518,3.038,8.497,9.453,8.497,9.453
	c12.492,5.107,26.276-0.875,26.276-0.875s1.373-16.224-11.529-26.895c-10.101-8.354-52.95-23.498-52.95-23.498
	c-3.529,0.081-6.877,0.497-10.053,1.175c0.194,0.439,0.38,0.935,0.548,1.506l-6.596,5.344c0,0-1.01,0.847-3.068,1.181
	c1.009,6.73,4.872,30.502,6.87,42.691c7.626,2.218,12.411,4.071,14.219,5.318c2.795,1.927,13.856,21.035,13.856,21.035
	S251.421,473.564,256.363,465.108z M194.744,403.03c-0.002-0.011-0.004-0.023-0.005-0.034c-1.072-0.088-2.512-0.198-4.255-0.327
	c-17.497,11.133-25.945,28.889-25.945,28.889s10.448,6.378,27.019,10.316c3.582,0.851,6.831,1.674,9.782,2.463
	c-1.653-10.107-6.597-40.417-6.597-41.308L194.744,403.03z M224.429,325.242l0.717,3.813c0,0,4.223,3.509,6.896-0.82l0.177-3.94
	C229.738,325.323,226.455,325.353,224.429,325.242z M223.862,308.869c3.741,0.739,3.776,0.32,6.82-0.691
	c1.09-0.362,1.786-0.592,2.293-0.737l0.222-4.954l-13.367-1.701l1.406,7.476C221.942,308.433,222.796,308.659,223.862,308.869z
	 M410.79,238.621l-18.332,0.872c1.748-2.854,5.674-10.739,4.156-22.179c-2.081-15.679-14.26-19.711-14.26-19.711
	s-9.042,0.923-8.759,0.894c6.757-0.695,16.386,4.895,18.989,21.446c0.071,0.45,1.362,12.142-4.893,19.397
	c-2.456,3.084-5.668,5.091-9.33,5.468c-3.975,0.409-7.823-1.165-11.016-4.119l-11.245,0.535c1.321-2.28,3.322-6.48,4.359-12.244
	c-2.112-5.612-1.142-13.421-0.26-16.698c-3.541-16.228-16.494-20.525-16.494-20.525l-11.491,1.067l0.031,0.14
	c0.331-0.057,0.668-0.08,1.002-0.139c10.97-1.951,23.32,9.772,22.774,32.347c-0.297,12.291-7.785,21.989-17.083,22.946
	c-2.955,0.304-5.85-0.316-8.536-1.673l-16.478,6.827l75.074-3.048L410.79,238.621z M404.356,259.322c0,0-6.958,1.202-5.959,11.618
	c0.929,9.69,7.664,10.289,7.664,10.289l14.995-1.107c-1.249-2.147-2.57-5.424-3.013-10.117c-0.501-5.311,0.142-9.201,0.904-11.757
	L404.356,259.322z M331.396,309.867l-2.009-19.374l14.389-13.403l-5.901,0.275l-13.458,12.562l1.206,11.873l0.874,8.61l4.639,0.145
	L331.396,309.867z M353.821,310.846l-2.744,61.446l4.488-0.194l3.528-61.409l-4.871,0.146
	C354.001,310.844,353.862,310.848,353.821,310.846z M369.372,310.202l-4.55,0.04l3.743,57.513l5.301-0.229L369.372,310.202z
	 M381.548,309.647l-5.265,0.298l11.174,60.774l4.488-0.194L381.548,309.647z M327.404,527.258c3.684,4.807,8.976,0.854,8.976,0.854
	l16.848-144.506l-6.756-1.198L327.404,527.258z M369.011,384.107l5.929,128.999c4.176,3.561,8.41-0.827,8.41-0.827l-7.957-129.431
	L369.011,384.107z M389.842,382.023l29.253,142.514c0,0,5.614,3.482,8.869-1.625L396.47,380.247L389.842,382.023z M286.22,500.093
	c0,0,1.285,3.328-6.99,2.421c1.378-5.576,4.176-5.955,4.176-5.955s-6.626-4.025-6.719-3.93c-3.497,2.05-4.671,6.77-5.046,9.234
	c-5.364-0.659-10.294-1.668-10.989-2.559c-0.064-0.082-2.275-0.127-2.688,0.826l0.551,5.365c3.248,0.497,23.692,3.552,28.126,2.353
	c4.82-1.303,2.489-6.403,2.489-6.403L286.22,500.093z M276.604,523.386c0,0,2.079,3.426-9.112,2.849
	c1.303-6.301,4.464-8.112,4.464-8.112l-7.084-4.322c-4.069,2.092-5.606,9.892-5.968,12.133c-4.535-0.303-8.249-1.004-9.121-1.374
	c-0.995-0.422-1.455-1.412-1.455-1.412s-1.663,0.475-1.426,3.089c0.238,2.614,0.475,4.277,0.475,4.277s24.951,3.327,29.941,1.663
	c4.99-1.663,2.376-7.366,2.376-7.366L276.604,523.386z"></path>
<path id="color_x5F_2" fill="#FBC02D" d="M223.329,346.096c0,0-5.499,6.719-9.637,15.666l-1.426-9.044
	c1.869-4.674,3.599-9.192,5.088-13.177C219.119,341.858,221.109,344.11,223.329,346.096z M359.371,223.361
	c-1.316-12.788,5.052-23.92,14.223-24.864s17.673,8.658,18.989,21.446s-5.052,23.92-14.223,24.864
	C369.189,245.751,360.687,236.149,359.371,223.361z M372.151,222.045c0.303,2.947,2.262,5.159,4.375,4.942s3.581-2.783,3.277-5.729
	s-2.262-5.159-4.375-4.942C373.315,216.534,371.848,219.099,372.151,222.045z M316.264,222.51
	c-1.571-15.269,6.032-28.56,16.982-29.687s21.101,10.337,22.673,25.606c1.571,15.269-6.032,28.56-16.982,29.687
	C327.986,249.243,317.835,237.779,316.264,222.51z M331.522,220.94c0.362,3.518,2.701,6.16,5.224,5.9
	c2.523-0.26,4.275-3.322,3.913-6.84c-0.362-3.518-2.701-6.16-5.224-5.9C332.912,214.359,331.16,217.422,331.522,220.94z
	 M147.812,220.653l-66.535,2.376l-5.228-65.109c0,0-0.475-3.327,4.277-5.703c4.753-2.376,20.436-6.654,20.436-6.654l22.337-2.852
	l-18.535,9.98L147.812,220.653z M93.158,177.406c2.362,0,4.277-1.915,4.277-4.277s-1.915-4.277-4.277-4.277
	s-4.277,1.915-4.277,4.277S90.796,177.406,93.158,177.406z M101,204.97c0-2.362-1.915-4.277-4.277-4.277s-4.277,1.915-4.277,4.277
	s1.915,4.277,4.277,4.277S101,207.333,101,204.97z M152.577,401.385l2.715,14.6c-0.027,0.012-0.051,0.026-0.077,0.038
	c1.832,7.556,4.347,14.002,7.853,17.947c0,0,9.215-19.322,27.894-31.265c-9.12-0.676-26.886-1.87-38.559-2.66
	C152.457,400.493,152.518,400.938,152.577,401.385z M413.847,280.654l0.27,3.687l-20.566,15.562l-7.501,0.21l0.014,0.91
	c0.876,7.268-5.127,8.16-5.127,8.16s-26.45,1.701-27.114,1.664c-6.338-0.358-6.199-6.897-6.199-6.897l-0.065-2.761l-7.023,0.196
	l-9.067,9.172l-2.08-20.063l14.389-13.403l-5.901,0.275l-13.458,12.562l1.206,11.873l-5.006,0.14l-2.205-15.954
	c-3.334,0.065-6.767,3.076-6.767,3.076l-3.209-20.777c1.118,1.935,5.483,2.058,7.804,1.981l-2.316-16.757l2.148-0.325L389,250.224
	l21.169-11.269l0.624-0.094l1.454,19.882l-7.887,0.581c0,0-6.958,1.202-5.959,11.618c0.929,9.69,7.664,10.289,7.664,10.289
	L413.847,280.654z M402.429,248.299l0.416,4.983l4.705-2.592l-0.346-5.124L402.429,248.299z M348.916,270.676l-0.256-6.03
	l-7.292,0.31l0.256,6.03L348.916,270.676z M351.69,281.624c-1.47-3.686-4.454-2.531-4.454-2.531l-2.915,2.103l1.254,10.108
	l5.303-4.206C350.878,287.098,352.951,284.784,351.69,281.624z M391.491,366.552l-0.224,0.009l0.677,3.964l-4.488,0.194
	l-0.733-3.985l-12.882,0.491l0.023,0.3l-5.301,0.229l-0.021-0.327l-12.739,0.485l-0.24,4.186l-4.488,0.194l0.188-4.207l-0.93,0.035
	c-6.091,0.474-6.66,6.821-6.66,6.821l0.236,5.469c0,0,5.139,3.782,27.217,2.617s27.977-5.003,27.977-5.003l-0.236-5.469
	C397.362,366.931,391.491,366.552,391.491,366.552z M435.448,282.832l-11.794,0.594c0,0-4.693-3.693-5.611-13.422
	c-0.995-10.543,2.52-15.5,2.52-15.5l12.099-1.104c0,0,6.959,0.197,8.348,13.437C442.447,280.529,435.448,282.832,435.448,282.832z
	 M435.426,261.177c-2.179-5.123-4.471-3.815-4.471-3.815s-7.047,11.991,0.806,21.621c0,0,2.799,1.559,3.938-1.382
	C436.838,274.66,438.059,267.367,435.426,261.177z M256.784,282.205c-1.754-15.403,4.769-30.295,13.421-31.708
	c-1.019,0.044-1.64,0.186-1.64,0.186l-54.601,25.089c-8.607,16.75,4.364,24.473,4.364,24.473l52.388,6.319
	C264.012,303.598,258.174,294.412,256.784,282.205z M168.589,384.728c0,0,4.144-9.446,10.426-16.574
	c1.156-1.312,2.354-0.98,2.541-1.381c4.982-10.681,18.012-28.754,27.046-40.76c-0.442-2.5-0.891-4.318-1.326-4.941
	c-1.693-2.421-5.62-4.515-6.403-4.917c-0.568-2.096-1.463-4.056-2.869-5.377c-4.698-4.412-6.657-3.733-6.657-3.733l3.223,9.359
	c0,0,0.121,0.073,0.318,0.206l-0.825,0.075c0.017,0.262,0.018,0.509-0.001,0.733c-0.16,1.888-2.026,11.45-2.026,11.45
	s-6.216-6.443-7.017-9.469c-0.8-3.026-10.779-7.463-10.779-7.463l-1.147-4.622l-0.141-0.135c0,0-1.031-0.299-2.905,1.867
	c-1.874,2.166-4.245,10.206-4.245,10.206s-5.465,7.144-10.346,9.901c-4.882,2.756-6.42,15.938-5.604,33.757
	c0.051,1.106,0.101,2.299,0.155,3.565l1.37,22.159l26.972,1.658C172.976,388.071,168.589,384.728,168.589,384.728z M166.627,272.163
	c0,0,19.939-0.67,24.464-4.561c4.526-3.891,5.506-19.885,19.283-22.293l-15.677,2.996c0,0-8.854-9.694-15.303-10.592
	c-6.449-0.898-15.553,2.346-20.593,5.301c-18.818,11.032-13.583,28.996-8.726,41.522L166.627,272.163z M211.914,353.592
	c-5.766,14.341-12.761,29.882-18.016,35.654c-0.721,0.792-1.522,1.399-2.378,1.855l14.436,0.887c0,0,1.593,0.278,2.83,3.032
	c4.018-0.965,8.301-1.519,12.856-1.525c0,0-8.598-30.733-9.481-37.78C212.087,355.128,212.004,354.406,211.914,353.592z"></path>
<path id="color_x5F_1" fill="#fc2b47" d="M172.455,343.189c-0.514-3.904-0.444-6.607-0.435-6.878
	c0.018-0.552,0.456-1.027,1.032-0.966c0.552,0.018,0.984,0.479,0.967,1.032c-0.002,0.064-0.068,2.704,0.453,6.574
	c0.051,0.376,0.141,1.169-0.88,1.348C172.822,344.436,172.511,343.613,172.455,343.189z M349.658,264.603l0.256,6.03
	c0.023,0.552-0.405,1.018-0.957,1.042l-7.292,0.31c-0.014,0-0.028,0.001-0.042,0.001c-0.25,0-0.491-0.094-0.677-0.264
	c-0.195-0.179-0.312-0.429-0.322-0.694l-0.256-6.03c-0.023-0.552,0.405-1.018,0.957-1.042l7.292-0.31
	c0.27-0.004,0.523,0.084,0.719,0.263C349.531,264.088,349.647,264.338,349.658,264.603z M347.874,269.719l-0.172-4.032l-5.294,0.225
	l0.172,4.032L347.874,269.719z M401.85,253.366l-0.417-4.983c-0.033-0.387,0.162-0.758,0.499-0.952l4.775-2.732
	c0.3-0.17,0.664-0.176,0.97-0.013c0.304,0.163,0.502,0.47,0.525,0.814l0.346,5.124c0.025,0.388-0.175,0.756-0.516,0.943
	l-4.704,2.592c-0.15,0.083-0.316,0.124-0.482,0.124c-0.162,0-0.324-0.04-0.473-0.119
	C402.075,254.004,401.877,253.703,401.85,253.366z M403.479,248.851l0.235,2.812l2.795-1.541l-0.195-2.894L403.479,248.851z
	 M336.85,227.835c-0.146,0.015-0.292,0.022-0.437,0.022c-2.896,0-5.487-2.948-5.886-6.815c-0.196-1.908,0.159-3.769,1.002-5.241
	c0.903-1.579,2.254-2.537,3.804-2.696c1.55-0.16,3.068,0.502,4.273,1.865c1.125,1.27,1.852,3.02,2.048,4.927
	C342.072,223.958,339.917,227.519,336.85,227.835z M339.664,220.102L339.664,220.102c-0.153-1.496-0.705-2.847-1.555-3.806
	c-0.699-0.79-1.519-1.214-2.333-1.214c-0.079,0-0.159,0.004-0.238,0.012c-0.892,0.092-1.698,0.696-2.273,1.7
	c-0.636,1.112-0.901,2.548-0.747,4.043c0.3,2.915,2.219,5.201,4.127,5.008C338.582,225.646,339.965,223.016,339.664,220.102z
	 M380.799,221.156c0.168,1.631-0.138,3.225-0.859,4.487c-0.783,1.369-1.959,2.2-3.311,2.339c-0.133,0.014-0.266,0.021-0.397,0.021
	c-1.211,0-2.377-0.571-3.32-1.637c-0.964-1.089-1.587-2.587-1.755-4.218s0.138-3.225,0.859-4.487c0.783-1.369,1.959-2.2,3.311-2.339
	c1.354-0.135,2.672,0.435,3.718,1.616C380.008,218.026,380.631,219.524,380.799,221.156z M378.809,221.36L378.809,221.36
	c-0.125-1.219-0.573-2.319-1.262-3.097c-0.554-0.625-1.198-0.961-1.833-0.961c-0.061,0-0.122,0.003-0.183,0.009
	c-0.693,0.071-1.325,0.548-1.779,1.343c-0.517,0.902-0.731,2.07-0.605,3.289c0.125,1.219,0.573,2.319,1.262,3.097
	c0.607,0.687,1.335,1.025,2.016,0.953c0.693-0.071,1.325-0.548,1.779-1.343C378.72,223.747,378.935,222.579,378.809,221.36z
	 M91.897,300.206c0,0-0.074-0.969-1.146-0.872c-0.8,0.073-0.842,1.097-0.842,1.097l0.553,7.172c0,0,0.154,1.129,1.003,1.071
	c1.065-0.072,1.002-1.071,1.002-1.071L91.897,300.206z M91.009,314.682l1.138,14.756c0,0,0.075,1.156,0.967,1.067
	c1.16-0.116,1.016-1.343,1.016-1.343L93.007,314.6c0,0-0.017-1.269-1.185-1.204C91.02,313.441,91.009,314.682,91.009,314.682z
	 M490.93,284.047c-0.81,0.138-0.78,1.46-0.78,1.46l0.705,10.274c0,0,0.204,0.961,1.036,0.957s0.965-1.015,0.965-1.015l-0.717-10.455
	C492.139,285.267,492.129,283.842,490.93,284.047z M502.331,433.789c0.169,1.026,1.163,10.519-16.898,20.252
	c-6.118,3.894-13.1,4.645-13.227,4.657l-57.321,0.327l3.992,18.082c25.398,0.021,50.822,0.046,76.287,0.08
	c0.553,0.001,1,0.449,0.999,1.001s-0.448,0.999-1,0.999h-0.001c-25.317-0.034-50.593-0.059-75.844-0.08l9.623,43.59
	c0.057,0.259,0.009,0.53-0.134,0.754c-1.567,2.459-3.689,3.254-5.676,3.254c-1.807,0-3.501-0.657-4.564-1.317
	c-0.233-0.145-0.396-0.379-0.452-0.648l-9.368-45.64c-8.813-0.007-17.635-0.015-26.435-0.021l2.037,33.14
	c0.018,0.28-0.084,0.554-0.278,0.756c-1.082,1.121-3.2,2.524-5.599,2.524c-1.35,0.001-2.787-0.443-4.18-1.631
	c-0.211-0.18-0.338-0.438-0.351-0.715l-1.566-34.08c-9.764-0.005-19.523-0.01-29.269-0.013l-5.733,49.168
	c-0.031,0.272-0.175,0.521-0.395,0.685c-1.116,0.834-3.014,1.734-5.054,1.734c-1.806,0-3.724-0.704-5.315-2.78
	c-0.161-0.21-0.232-0.477-0.197-0.739l6.328-48.071c-19.105-0.005-38.146-0.005-57.153-0.002l-1.826,12.189
	c0.634,0.401,1.228,0.768,1.809,1.124c0.329-0.374,0.552-0.591,0.593-0.629c0.332-0.311,0.832-0.359,1.217-0.115l6.212,3.928
	c0.34,0.215,0.518,0.612,0.453,1.008c-0.045,0.274-0.206,0.506-0.427,0.657c1.032,0.67,1.844,1.282,2.454,1.906
	c0.188-0.029,0.383-0.023,0.569,0.064l2.912,1.353c0.216,0.101,0.389,0.275,0.488,0.491c0.053,0.117,1.296,2.891,0.202,5.22
	c-0.594,1.264-1.717,2.126-3.34,2.565c-0.78,0.21-2.006,0.3-3.522,0.3c-6.737,0-19.174-1.757-23.738-2.437l0.686,6.676
	c0.985,0.323,1.913,0.676,2.818,1.041c0.413-0.515,0.703-0.816,0.75-0.863c0.321-0.32,0.821-0.386,1.213-0.155l6.891,4.04
	c0.346,0.203,0.538,0.594,0.486,0.991c-0.041,0.318-0.235,0.586-0.506,0.738c1.702,1.216,3.044,2.406,4.021,3.458
	c0.285-0.218,0.672-0.285,1.021-0.125l3.089,1.426c0.217,0.101,0.391,0.274,0.49,0.491c0.061,0.133,1.471,3.268,0.327,5.901
	c-0.583,1.344-1.692,2.296-3.296,2.83c-1.084,0.362-3.015,0.506-5.395,0.506c-8.924,0-24.183-2.018-24.994-2.126
	c-0.444-0.06-0.794-0.406-0.857-0.85c-0.01-0.069-0.244-1.719-0.482-4.328c-0.218-2.396,0.887-3.454,1.593-3.883
	c-0.604-2.162-0.607-4.723-0.578-5.733c-3.326-7.495-8.741-27.209-11.51-37.651c-0.73,0-1.46,0-2.19,0.001l0.18,1.197
	c0.041,0.268-0.029,0.539-0.193,0.755l-3.328,4.366c-0.014,0.018-0.037,0.026-0.052,0.043c-0.076,0.087-0.163,0.163-0.267,0.22
	c-0.046,0.025-0.095,0.036-0.145,0.054c-0.06,0.022-0.112,0.055-0.177,0.066c-0.052,0.008-0.103,0.011-0.154,0.012l0,0
	c0,0,0,0-0.001,0l0,0l0,0c-0.027,0-0.055-0.001-0.083-0.004l-5.035-0.426c-0.463-0.039-0.838-0.392-0.905-0.852l-0.794-5.426
	c-0.705,0-1.411,0.001-2.116,0.001l7.454,49.723c0.04,0.268-0.03,0.539-0.193,0.755l-3.328,4.367
	c-0.014,0.018-0.037,0.026-0.052,0.043c-0.076,0.087-0.163,0.163-0.267,0.22c-0.046,0.025-0.095,0.036-0.145,0.054
	c-0.06,0.022-0.112,0.055-0.177,0.066c-0.052,0.008-0.103,0.011-0.154,0.012l0,0c0,0,0,0-0.001,0l0,0l0,0
	c-0.027,0-0.055-0.001-0.083-0.004l-5.035-0.427c-0.463-0.039-0.838-0.392-0.905-0.852l-7.898-53.951
	c-15.106,0.008-30.159,0.02-45.184,0.033l5.883,43.562c0.045,0.339-0.085,0.678-0.346,0.898l-3.641,3.072
	c-0.174,0.147-0.385,0.217-0.596,0.227c-0.04,0.172-0.11,0.335-0.234,0.466c-0.189,0.199-0.452,0.311-0.725,0.311
	c-0.028,0-0.056-0.001-0.084-0.004l-5.035-0.426c-0.464-0.039-0.84-0.395-0.906-0.856l-6.674-47.24
	c-25.872,0.024-51.626,0.055-77.198,0.093h-0.001c-0.552,0-0.999-0.446-1-0.998c-0.001-0.553,0.446-1.001,0.999-1.002
	c25.481-0.038,51.141-0.068,76.919-0.092l-2.342-16.576l-28.231,0.161h-0.005c-0.049,0-0.098-0.004-0.147-0.011
	c-19.871-2.944-20.101-20.064-20.101-20.237l-8-103.685c0,0-0.027-1.519,0.741-1.615c1.309-0.164,1.25,1.44,1.25,1.44l8.006,103.784
	c0.005,0.709,0.268,15.608,18.322,18.325l27.884-0.159l-6.664-47.169l-9.157,0.14h-0.016c-0.545,0-0.991-0.438-1-0.984
	c-0.008-0.553,0.433-1.007,0.985-1.016l8.905-0.136l-1.347-9.532c-0.173-0.237-1.878-2.704-0.848-6l-5.33-37.723
	c-0.014-0.097-0.012-0.194,0.003-0.289c0-0.002-0.001-0.004,0-0.006c0.001-0.009,0.007-0.015,0.009-0.024
	c0.015-0.079,0.034-0.158,0.067-0.232c0.134-0.297,3.409-7.317,14.531-11.565c0.805-8.686,2.779-13.959,5.909-15.727
	c4.293-2.423,9.176-8.528,9.934-9.496c0.417-1.395,2.53-8.241,4.393-10.394c1.021-1.18,1.878-1.75,2.538-2.016l-1.037-4.178
	c-15.776-2.132-21.47-16.826-21.648-17.301c0,0,0-0.001-0.001-0.001c-3.533-9.114-11.809-30.458,9.153-42.746
	c4.646-2.724,14.133-6.421,21.236-5.428c6.021,0.838,13.704,8.585,15.52,10.497l14.55-2.781c0.198-0.041,0.397-0.079,0.6-0.114
	c0.176-0.029,0.341,0.001,0.497,0.055c1.105,0.023,3.463,0.273,5.273,1.864c1.402,1.232,2.168,2.978,2.277,5.189
	c0.394,7.954-13.958,14.308-14.569,14.575c-0.13,0.057-0.266,0.084-0.399,0.084c-0.025,0-0.049-0.009-0.073-0.011
	c0.356,1.96,0.614,4.216,0.69,6.838c0.025,0.864,0.053,1.708,0.08,2.533c0.368,11.125,0.633,19.163-8.47,26.341
	c-1.065,0.839-2.169,1.489-3.296,1.989c-0.053,0.772-0.084,1.537-0.095,2.26c1.186,0.15,3.314,0.948,6.573,4.009
	c1.456,1.368,2.407,3.322,3.026,5.417c1.337,0.718,4.75,2.701,6.38,5.032c0.237,0.339,0.47,0.93,0.701,1.735
	c0.14,0.346,0.235,0.965,0.324,1.44c3.706-4.886,6.719-8.755,7.708-10.009c-0.288-0.993-0.708-3.1,0.195-4.9
	c0.764-1.523,1.76-1.849,2.962-1.743l-1.072-5.697l-0.704-0.085c-0.139-0.017-0.272-0.063-0.392-0.134
	c-0.037-0.022-1.031-0.637-2.295-1.849l-4.213,0.12c-0.009,0-0.019,0-0.028,0c-0.26,0-0.509-0.101-0.696-0.282
	c-7.956-7.716-3.973-17.47-3.932-17.567c0.115-0.273,0.347-0.482,0.631-0.568l3.912-1.188c0.465-1.413,1.079-2.896,1.88-4.454
	c0.103-0.199,0.269-0.358,0.472-0.452l40.663-18.684l-29.742,1.051c-0.012,0-0.024,0-0.036,0c-0.536,0-0.98-0.425-0.999-0.965
	c-0.02-0.552,0.412-1.015,0.964-1.035l34.531-1.22l6.678-3.068c1.478-0.91,2.575-1.196,2.731-1.233c0.001,0,0.001,0,0.002,0h0.001
	c0.246-0.057,6.072-1.343,11.711,2.842c0.29,0.215,0.57,0.448,0.848,0.683l33.339-1.178l13.89-5.755
	c-1.691-1.096-3.302-2.492-4.794-4.177c-4.42-4.992-7.284-11.921-8.065-19.512c-0.376-3.659-0.23-7.208,0.352-10.522l-15.271,0.555
	c-0.009,0-0.017,0.004-0.026,0.004c-0.005,0-0.009-0.003-0.014-0.003l-152.869,5.559l1.215,1.909
	c0.192,0.303,0.208,0.685,0.042,1.002c-0.167,0.317-0.491,0.521-0.85,0.534l-61.841,2.209l5.388,69.843c0,0,0.024,1.138-0.955,1.244
	c-0.846,0.091-1.047-1.199-1.047-1.199l-5.387-69.816l-2.694,0.096c-0.012,0-0.024,0-0.036,0c-0.519,0-0.955-0.399-0.996-0.92
	l-5.228-65.109c-0.017-0.104-0.509-4.009,4.827-6.678c4.786-2.393,19.976-6.548,20.62-6.724c0.045-0.012,0.09-0.021,0.137-0.027
	l22.337-2.852c0.12-0.015,0.238-0.009,0.35,0.017c0.034,0.008,0.062,0.029,0.095,0.04c0.083,0.028,0.164,0.059,0.236,0.107
	c0.04,0.027,0.071,0.064,0.107,0.097c0.055,0.049,0.107,0.098,0.15,0.159c0.029,0.041,0.047,0.087,0.07,0.133
	c0.023,0.045,0.055,0.084,0.07,0.134c0.008,0.026,0.005,0.052,0.011,0.078c0.005,0.022,0.019,0.038,0.023,0.06l0.498,2.932
	l347.684-48.903c0.561-0.084,1.053,0.304,1.13,0.851c0.015,0.104-0.002,0.202-0.018,0.3c0.005,0.027,0.017,0.052,0.021,0.08
	l3.564,30.653c0.031,0.266-0.046,0.534-0.214,0.743l-8.016,9.966c-0.011,0.014-0.029,0.019-0.041,0.032
	c-0.08,0.09-0.173,0.165-0.281,0.221c-0.049,0.025-0.1,0.035-0.152,0.052c-0.058,0.019-0.11,0.051-0.173,0.059L144.35,182.681
	l338.703-15.541c0.023,0,0.042,0.01,0.064,0.011c0.086,0.002,0.166,0.02,0.248,0.043c0.038,0.011,0.075,0.019,0.11,0.033
	c0.074,0.031,0.14,0.074,0.206,0.123c0.045,0.032,0.087,0.064,0.125,0.103c0.02,0.021,0.047,0.031,0.065,0.053
	c0.024,0.03,0.032,0.066,0.052,0.098c0.037,0.056,0.069,0.114,0.094,0.178c0.024,0.061,0.039,0.121,0.05,0.184
	c0.007,0.036,0.026,0.067,0.028,0.105l7.529,109.714c0,0,0.102,1.55-0.937,1.607c-0.996,0.054-1.06-1.49-1.06-1.49l-5.388-78.519
	l-5.824,6.2l16.077,231.378c0.164,4.257-0.822,7.691-2.456,10.461c9.272-7.289,8.332-13.247,8.319-13.32
	c-0.007-0.036-0.014-0.084-0.017-0.121l-9.007-131.249c0,0-0.213-1.305,0.856-1.368c1.069-0.064,1.149,1.369,1.149,1.369
	L502.331,433.789z M395.622,217.445c-1.839-13.852-11.917-18.251-13.401-18.826l-1.55,0.144
	c6.638,3.067,11.887,11.154,12.908,21.077c0.87,8.459-1.552,16.238-5.919,21.048l3.384-1.052
	C392.078,238.344,397.297,230.07,395.622,217.445z M382.5,242.491c6.231-3.342,10.126-12.361,9.089-22.447
	c-1.201-11.675-8.583-20.612-16.746-20.612c-0.381,0-0.762,0.019-1.146,0.059c-4.106,0.423-7.758,3.083-10.279,7.493
	c-2.584,4.516-3.668,10.296-3.052,16.274c0.615,5.979,2.854,11.417,6.303,15.312c3.367,3.804,7.491,5.669,11.589,5.242
	c1.407-0.145,2.742-0.555,3.988-1.186c0.074-0.048,0.146-0.101,0.234-0.128L382.5,242.491z M352.991,239.073
	c-1.035,1.809-2.22,3.396-3.526,4.747l4.736-1.472c0.767-1.097,3.827-5.875,5.22-13.416c-0.487-1.759-0.851-3.585-1.045-5.468
	c-0.4-3.889-0.113-7.706,0.795-11.2c-3.23-14.393-13.965-18.888-15.594-19.491l-2.669,0.248c8.18,3.378,14.757,13.184,16.005,25.307
	C357.694,225.917,356.302,233.285,352.991,239.073z M357.836,240.138l7.253-0.345c-1.791-2.046-3.274-4.471-4.4-7.153
	C359.851,235.767,358.781,238.285,357.836,240.138z M394.453,207.223l28.754-1.046c0.013-0.012,0.018-0.029,0.032-0.041
	l35.143-29.877l-58.58,2.445l-21.488,18.268l3.946-0.366c0.139-0.014,0.275,0.003,0.407,0.046
	C383.059,196.783,390.075,199.206,394.453,207.223z M299.945,210.66l34.372-29.221l-58.286,2.433l-33.921,28.891L299.945,210.66z
	 M238.889,212.88l33.9-28.873l-59.486,2.483l-32.589,28.505L238.889,212.88z M474.883,173.57l5.247-4.293l-353.505,16.221
	l1.618,2.542l84.392-3.523c0.172-0.06,0.351-0.058,0.526-0.022l62.22-2.597c0.164-0.055,0.334-0.053,0.501-0.021L474.883,173.57z
	 M134.338,197.617l9.401-8.223l-14.255,0.595L134.338,197.617z M106.176,153.363l125.677-17.254c0.139-0.051,0.282-0.072,0.43-0.059
	l60.877-8.358c0.089-0.025,0.176-0.036,0.268-0.037l61.031-8.379c0.042-0.009,0.081-0.013,0.124-0.017l109.306-15.006l5.888-5.31
	L113.401,149.07l-7.416,3.993L106.176,153.363z M206.757,172.345l-34.83-25.979c-0.004-0.003-0.005-0.007-0.009-0.01l-62.792,8.621
	l34.419,25.673c0.041,0.03,0.063,0.074,0.097,0.108L206.757,172.345z M209.42,171.99l58.523-7.8l-35.961-26.08l-57.243,7.859
	l34.389,25.651C209.263,171.719,209.353,171.85,209.42,171.99z M270.799,163.81l58.651-7.817l-36.246-26.287l-58.356,8.011
	l35.898,26.035C270.767,163.768,270.778,163.792,270.799,163.81z M332.225,155.622l58.729-7.828L354.423,121.3l-58.356,8.011
	l35.916,26.048C332.084,155.433,332.161,155.525,332.225,155.622z M393.558,147.448l58.901-7.851l-36.817-26.701l-58.355,8.011
	l35.934,26.061C393.391,147.091,393.493,147.264,393.558,147.448z M108.488,156.996l16.688,26.223l15.669-2.088L108.488,156.996z
	 M426.416,206.061l49.903-1.815l-1.991-28.652l-12.858,0.537c-0.059,0.129-0.14,0.248-0.255,0.346L426.416,206.061z
	 M484.054,196.667l-1.82-26.529L476.292,175l1.936,27.862l5.807-6.181C484.04,196.675,484.048,196.673,484.054,196.667z
	 M466.855,137.678l-3.407-31.345l-44.942,6.17l35.952,26.074c0.238,0.172,0.369,0.43,0.399,0.701L466.855,137.678z M471.637,99.961
	l-6.256,5.642l3.308,30.43l6.24-7.759L471.637,99.961z M122.602,145.756l-0.255-1.503l-3.867,2.082L122.602,145.756z
	 M146.03,219.716l-42.31-66.486c-0.149-0.235-0.194-0.521-0.124-0.79s0.249-0.496,0.494-0.628l13.79-7.425l-16.922,2.16
	c-1.118,0.307-15.73,4.338-20.185,6.565c-3.996,1.998-3.738,4.641-3.735,4.667l5.159,64.217L146.03,219.716z M146.196,216.251
	l31.577-1.148c0.055-0.159,0.136-0.31,0.272-0.429l32.068-28.05l-63.292,2.642c-0.055,0.099-0.119,0.194-0.208,0.272l-11.188,9.786
	L146.196,216.251z M316.031,210.075c2.211-9.339,8.021-16.418,15.534-17.991c0.153-0.134,0.336-0.236,0.554-0.256l11.492-1.066
	c0.139-0.013,0.275,0.002,0.407,0.046c0.133,0.044,11.766,4.075,16.287,18.068c0.408-0.999,0.854-1.972,1.376-2.885
	c2.574-4.5,6.246-7.388,10.442-8.268c0.146-0.115,0.314-0.204,0.512-0.222l2.214-0.206l21.707-18.454l-58.993,2.463l-34.393,29.24
	L316.031,210.075z M338.834,247.122c1.649-0.17,3.234-0.643,4.731-1.386c0.099-0.084,0.217-0.15,0.349-0.191l0.062-0.019
	c2.842-1.524,5.34-4.054,7.28-7.446c3.104-5.427,4.407-12.37,3.668-19.548c-1.444-14.04-10.343-24.785-20.188-24.785
	c-0.461,0-0.923,0.023-1.387,0.071c-10.384,1.069-17.602,13.895-16.089,28.59c0.738,7.179,3.428,13.71,7.573,18.391
	C328.894,245.386,333.861,247.632,338.834,247.122z M319.497,252.043l69.231-2.811l17.659-9.4l-13.355,0.635
	c-0.314,0.481-0.537,0.781-0.583,0.84c-0.126,0.161-0.298,0.28-0.492,0.34l-8.748,2.718c-1.477,0.764-3.067,1.263-4.746,1.435
	c-0.455,0.047-0.91,0.07-1.363,0.07c-3.563,0-7.048-1.457-10.1-4.166l-10.308,0.49c-0.593,0.973-1.015,1.53-1.088,1.624
	c-0.126,0.161-0.298,0.28-0.492,0.34l-10.361,3.22c-1.792,0.934-3.708,1.526-5.712,1.732c-0.536,0.055-1.072,0.083-1.606,0.083
	c-2.415,0-4.801-0.566-7.079-1.648L319.497,252.043z M417.622,259.347l-13.13,0.967c-0.579,0.125-5.961,1.536-5.099,10.53
	c0.792,8.261,6.044,9.286,6.692,9.38l13.37-0.988c-1.058-2.198-2.034-5.188-2.407-9.139
	C416.615,265.513,417.013,261.953,417.622,259.347z M424.019,282.407l11.221-0.565c0.832-0.354,6.021-3.05,4.777-14.9
	c-1.227-11.679-6.789-12.488-7.339-12.539l-11.521,1.052c-0.726,1.307-2.912,6.042-2.118,14.456
	C419.776,277.729,423.067,281.475,424.019,282.407z M390.054,250.792l4.327,46.99l18.698-14.148l-0.14-1.911l-6.805,0.503
	c-0.024,0.002-0.049,0.003-0.073,0.003c-0.029,0-0.059-0.001-0.089-0.004c-0.075-0.007-7.574-0.792-8.57-11.19
	c-1.075-11.209,6.705-12.685,6.784-12.699c0.031-0.005,0.064-0.01,0.097-0.012l6.908-0.509l-1.286-17.59L390.054,250.792z
	 M385.069,301.143c-0.01-0.083,0.009-0.161,0.019-0.24l-36.573,1.022c0.005,0.034,0.023,0.064,0.024,0.099l0.081,1.882
	c-0.003,0.289-0.021,5.644,5.257,5.942c0.001,0,0.003,0,0.005,0c0.824,0,16.581-0.993,26.988-1.663
	C381.299,308.112,385.802,307.215,385.069,301.143z M380.628,310.201c-0.888,0.057-1.989,0.128-3.243,0.209l10.897,59.272
	l2.485-0.107L380.628,310.201z M398.079,377.442l-0.204-4.73c-0.968-3.425-3.827-4.586-5.392-4.972l0.447,2.618
	c0.049,0.282-0.027,0.572-0.207,0.796c-0.181,0.224-0.448,0.358-0.735,0.371l-4.488,0.194c-0.015,0.001-0.029,0.001-0.044,0.001
	c-0.479,0-0.895-0.343-0.982-0.819l-0.543-2.952c-0.089,0.031-0.178,0.064-0.277,0.068l-11.742,0.507c-0.001,0-0.002,0-0.002,0.001
	l-4.896,0.211l-12.284,0.531l-0.166,2.889c-0.029,0.513-0.441,0.919-0.955,0.941l-4.487,0.194c-0.014,0.001-0.028,0.001-0.043,0.001
	c-0.265,0-0.52-0.105-0.708-0.293c-0.198-0.199-0.304-0.472-0.291-0.752l0.139-3.103c-4.772,0.501-5.47,5.205-5.54,5.826
	l0.209,4.841c1.538,0.74,8.075,3.174,26.19,2.217C389.3,381.068,396.312,378.299,398.079,377.442z M388.862,382.108
	c-3.212,0.594-7.293,1.154-12.415,1.568l1.359,22.102l15.842-0.242l-4.785-23.312C388.854,382.184,388.865,382.147,388.862,382.108z
	 M380.968,457.222l23.261-0.133l-10.173-49.56l-16.128,0.246L380.968,457.222z M345.628,457.424l25.745-0.147l-2.269-49.366
	l-17.735,0.271L345.628,457.424z M368.013,384.161c-1.704,0.058-3.31,0.088-4.798,0.088c-3.579,0-6.547-0.154-9.009-0.391
	l-2.602,22.32l17.409-0.266L368.013,384.161z M342.052,408.324l-81.755,1.248c5.245,2.53,9.653,4.982,12.152,7.05
	c13.154,10.879,11.946,27.066,11.888,27.75c-0.031,0.367-0.261,0.687-0.598,0.833c-0.161,0.07-1.356,0.575-3.253,1.153
	l-1.715,11.447l56.809-0.324L342.052,408.324z M258.971,498.002c0.047-0.01,0.093,0.001,0.14-0.003
	c-0.418-2.53,0.503-5.923,0.847-7.054c-0.363-4.223-0.659-8.191-0.902-11.89c-0.751,0-1.501,0-2.252,0l1.954,19.016
	C258.831,498.045,258.906,498.017,258.971,498.002z M258.928,477.056c-0.418-6.718-0.657-12.477-0.789-17.136l-1.206,0.007
	c0.346,2.909,0.42,4.852,0.429,5.149c0.006,0.188-0.042,0.374-0.136,0.536c-0.447,0.766-0.99,1.446-1.591,2.067l0.964,9.377
	C257.376,477.056,258.152,477.056,258.928,477.056z M258.011,446.587c-0.442-0.154-0.884-0.317-1.324-0.497
	c-0.233-0.096-0.422-0.275-0.528-0.504c-0.022-0.047-1.739-3.657-4.87-6.616c3.116,6.656,4.641,13.814,5.381,18.96l1.418-0.008
	C257.941,451.701,257.989,447.79,258.011,446.587z M282.37,443.598c0.074-2.993-0.248-16.379-11.196-25.435
	c-9.849-8.146-52.219-23.175-52.646-23.326c-0.137-0.048-0.254-0.126-0.353-0.22c-2.787,0.182-5.459,0.584-8.031,1.15
	c0.058,0.173,0.117,0.341,0.172,0.527c0.114,0.388-0.016,0.805-0.33,1.06l-6.596,5.344c-0.04,0.035-0.91,0.752-2.595,1.199
	c0.502,3.719,3.883,24.937,6.479,41.062c7.078,2.073,12.061,3.939,14.075,5.327c2.736,1.888,11.914,17.506,13.885,20.894
	c2.758,0.145,15.851,0.435,20.117-6.33c-0.156-3.046-1.932-29.07-16.881-38.396c-6.7-4.18-11.886-6.844-15.673-8.788
	c-4.752-2.44-6.718-3.45-6.923-5.012c-0.088-0.67,0.19-1.301,0.826-1.876c2.206-1.995,3.466-2.53,3.603-2.584
	c0.515-0.207,1.095,0.046,1.299,0.559s-0.046,1.095-0.559,1.299c-0.001,0.001-1.073,0.465-3.001,2.209
	c-0.085,0.077-0.134,0.135-0.162,0.172c0.363,0.646,3.021,2.012,5.831,3.454c3.818,1.961,9.047,4.646,15.818,8.87
	c4.039,2.52,7.158,6.108,9.577,10.113c4.999,2.78,7.951,8.065,8.688,9.51C268.241,448.462,279.708,444.608,282.37,443.598z
	 M219.136,457.693l-0.608,0.455l0.674-0.004L219.136,457.693z M213.299,458.632l-1.35-7.343l-58.123-11.029l1.041,7.686
	c0.114-0.019,0.232-0.027,0.353-0.005L213.299,458.632z M161.394,458.473l38.794-0.221l-39.814-7.328L161.394,458.473z
	 M136.615,357.182l4.831,34.196c0.678-0.42,1.913-1.154,3.36-1.891l-4.42-31.713L136.615,357.182z M168.187,388.405
	c-0.11,0.04-0.225,0.06-0.339,0.06c-0.246,0-0.488-0.091-0.675-0.263c-0.598-0.547-11.475-10.667-16.311-25.107
	c0.056,1.239,0.113,2.573,0.172,4.004c0.241,5.728,0.549,12.948,1.142,20.556l21.272,1.318c-2.041-1.18-3.578-2.265-4.299-2.797
	c-0.141,0.497-0.247,0.975-0.31,1.426C168.788,387.97,168.537,388.279,168.187,388.405z M212.94,353.763
	c0.077,0.694,0.149,1.316,0.214,1.829c0.109,0.87,0.34,2.116,0.66,3.627c3.183-6.326,6.766-11.213,8.155-13.014
	c-1.551-1.453-2.974-3.026-4.292-4.645C216.261,345.324,214.657,349.486,212.94,353.763z M222.439,394.1
	c-0.004,0.006-0.011,0.008-0.016,0.013c5.543,2.015,17.223,6.359,28.139,11.051l-2.719-28.892
	c-8.087-0.593-20.775-1.463-30.385-2.115c2.48,9.519,5.1,18.9,5.147,19.069C222.689,393.527,222.628,393.851,222.439,394.1z
	 M214.764,363.42c0.274,1.157,0.571,2.378,0.886,3.647l36.133,2.82c1.407,0.121,5.439,0.212,7.302-0.806
	c0.822-0.448,1.648-1.069,2.391-1.69c-8.599,1.087-29.606,2.766-45.497-3.896L214.764,363.42z M252.629,405.787
	c0.009,0.091-0.013,0.176-0.028,0.262c0.897,0.393,1.785,0.787,2.662,1.182l-2.69-30.602c-0.784-0.062-1.693-0.131-2.708-0.208
	L252.629,405.787z M255.752,374.9c3.376,0.4,4.948-0.869,5.013-0.924l4.892-3.963c-0.424-1.098-0.78-2.067-1.035-2.774
	c-0.999,0.989-2.775,2.614-4.579,3.597c-1.717,0.937-4.445,1.121-6.331,1.121c-1.163,0-2.006-0.07-2.093-0.078l-35.457-2.767
	c0.25,0.989,0.506,1.993,0.766,3.004C231.281,373.088,253.098,374.588,255.752,374.9z M264.531,366.984
	c-0.002-0.007-0.006-0.016-0.008-0.022c-0.009,0.001-0.022,0.003-0.032,0.005C264.504,366.973,264.518,366.978,264.531,366.984z
	 M271.602,377.74c0.171,0.177,0.342,0.362,0.514,0.549c0.887,0.961,1.721,1.901,2.679,1.802c0.79-0.054,2.2-0.789,4.432-3.988
	c3.443-4.935-0.487-12.424-3.046-15.694c-2.219-2.835-33.858-8.714-53.513-11.794c-1.761,2.405-4.834,6.913-7.48,12.341
	c19.523,9.118,49.52,3.953,49.825,3.898c0.485-0.087,0.958,0.193,1.12,0.656C267.119,368.359,270.028,376.109,271.602,377.74z
	 M194.638,389.919c-0.113,0.125-0.234,0.228-0.351,0.345l11.731,0.727c0.035,0.002,0.071,0.006,0.105,0.012
	c0.226,0.039,1.865,0.407,3.221,2.896c3.473-0.791,7.127-1.292,10.985-1.385c-1.524-5.489-7.427-26.934-8.9-35.035
	C205.936,370.839,199.579,384.491,194.638,389.919z M186.626,393.292c-2.89,0-5.898-0.881-8.613-2.032l-28.062-1.738
	c-2.615,0.734-5.737,2.518-7.172,3.388l49.631,3.874c1.516,0.131,5.866,0.226,7.885-0.874c1.438-0.785,2.92-2.059,3.942-3.025
	l-12.441-0.771C190.191,392.944,188.434,393.292,186.626,393.292z M148.67,351.464c-0.922,0.28-3.352,1.386-6.352,5.685l4.382,31.44
	c0.961-0.419,1.95-0.791,2.89-1.042c0.104-0.027,0.209-0.036,0.32-0.032l0.253,0.016c-0.585-7.538-0.888-14.667-1.127-20.348
	c-0.063-1.515-0.123-2.931-0.183-4.228c-0.18-3.933-0.244-7.533-0.198-10.816c-0.003-0.043-0.008-0.085-0.011-0.127
	c0.005-0.005,0.009-0.011,0.014-0.016C148.661,351.814,148.667,351.643,148.67,351.464z M196.671,402.168
	c3.673,0.428,5.415-0.986,5.432-1.001l6.092-4.937c-0.538-1.528-1.184-2.341-1.678-2.778c-0.956,0.976-3.1,3.032-5.264,4.213
	c-1.83,0.998-4.743,1.195-6.76,1.195c-1.248,0-2.153-0.075-2.247-0.084l-50.66-3.954c-0.37,1.612,0.12,2.89,0.433,3.483
	C147.674,398.684,192.653,401.694,196.671,402.168z M207.84,448.474l4.717,0.895l0.605-0.46c-1.581-0.543-3.424-1.133-5.536-1.763
	C207.698,447.593,207.77,448.038,207.84,448.474z M162.881,432.162c1.242-2.29,4.1-7.182,8.569-12.773
	c0.24-0.3,1.127-0.875,1.55-0.459c0.686,0.675,0.055,1.629-0.145,1.881c-3.257,4.102-5.618,7.801-7.085,10.301
	c2.571,1.443,12.171,6.498,26.019,9.789c2.945,0.7,5.711,1.394,8.315,2.077c-1.82-11.132-5.581-34.221-6.253-39.055
	c-0.723-0.058-1.563-0.123-2.51-0.195c-5.672,3.667-10.472,8.012-14.381,12.271c-0.259,0.282-0.868,0.621-1.504-0.056
	c-0.376-0.4-0.094-1.132,0.13-1.376c3.496-3.797,7.677-7.663,12.541-11.079c-9.267-0.679-24.106-1.694-34.579-2.403
	C155.196,413.688,157.97,425.647,162.881,432.162z M160.844,432.727c-3.198,1.61-5.474,4.097-6.625,5.573l46.565,8.835
	c-0.092-0.559-0.201-1.228-0.327-1.997c-2.742-0.727-5.758-1.489-9.131-2.291c-14.24-3.384-23.866-8.473-26.545-9.992
	c-0.514,0.938-0.79,1.499-0.811,1.545c-0.145,0.302-0.431,0.513-0.762,0.56c-0.047,0.007-0.094,0.01-0.141,0.01
	c-0.284,0-0.556-0.12-0.748-0.336C161.805,434.054,161.318,433.405,160.844,432.727z M202.858,447.422
	c0.006,0.036-0.006,0.07-0.004,0.106l2.896,0.549c-1.324-8.217-6.199-38.511-6.923-43.869c-0.263,0.018-0.518,0.042-0.804,0.042
	c-0.494,0-1.022-0.029-1.586-0.096c-0.135-0.016-0.321-0.035-0.55-0.057C196.658,409.381,200.324,431.963,202.858,447.422z
	 M148.393,400.738l2.425,17.4c0.736-0.888,1.815-1.841,3.262-2.631c-1.074-4.579-1.901-9.529-2.553-14.558
	C150.411,400.874,149.365,400.804,148.393,400.738z M151.241,421.178l2.046,15.101c1.357-1.598,3.54-3.724,6.474-5.242
	c-2.143-3.633-3.841-8.291-5.186-13.531C152.411,418.842,151.497,420.593,151.241,421.178z M221.559,453.383
	c-0.571-0.727-1.033-1.236-1.345-1.451c-0.811-0.559-2.39-1.308-4.807-2.217l-1.503,1.144l1.334,7.253L221.559,453.383z
	 M345.48,382.276c0.003-0.025,0.018-0.045,0.023-0.069c-1.508-0.515-2.115-0.939-2.185-0.991c-0.244-0.18-0.394-0.46-0.406-0.763
	l-0.236-5.47c-0.002-0.044-0.001-0.088,0.003-0.132c0.223-2.486,2.093-7.302,7.578-7.729c0.018-0.001,0.032,0.006,0.05,0.006
	l1.153-25.827l-120.57,3.737h-0.031c-0.538,0-0.982-0.428-0.999-0.969c-0.017-0.553,0.417-1.014,0.969-1.031l120.721-3.741
	l1.231-27.563c-4.953-0.806-6.21-5.367-6.158-7.808l-0.08-1.817c-0.002-0.046,0.016-0.086,0.021-0.13l-5.359,0.15l-9.026,9.13
	c-0.19,0.193-0.448,0.297-0.711,0.297c-0.059,0-0.118-0.02-0.177-0.03c-0.052,0.008-0.099,0.03-0.153,0.03c-0.011,0-0.021,0-0.032,0
	l-4.64-0.146c-0.501-0.015-0.913-0.399-0.964-0.898l-0.804-7.922l-4.052,0.113h-0.028c-0.498,0-0.922-0.367-0.99-0.863l-0.339-2.456
	l-32.605,1.157c-0.832,1.585-1.808,2.962-2.943,4.104c-3.315,3.338-6.819,3.554-7.666,3.554c-0.072,0-0.117-0.002-0.148-0.003
	c-0.007,0-0.006,0-0.015,0c-0.261,0-1.173-0.027-2.464-0.296l-39.278-4.736l-0.138,3.071c0.304-0.012,0.615,0.01,1.039,0.046
	c0.992,0.084,1.318,1.239,1.457,1.732c0.851,3.016,1.412,13.591-2.238,16.277c-0.338,0.249-0.709,0.462-1.096,0.655l-0.149,3.336
	c-0.008,0.17-0.059,0.336-0.148,0.48c-0.913,1.478-2.094,2.345-3.512,2.576c-0.253,0.042-0.504,0.061-0.75,0.061
	c-2.205,0-4.04-1.502-4.125-1.572c-0.179-0.149-0.301-0.355-0.344-0.585l-0.574-3.051c-0.116-0.01-0.232-0.019-0.333-0.029
	c-0.652,1.883-2.382,6.819-4.755,13.197c1.645,2.123,3.467,4.179,5.495,5.993c0.398,0.356,0.446,0.964,0.107,1.378
	c-0.003,0.004-0.029,0.035-0.062,0.077c11.072,1.753,50.491,8.251,53.714,12.371c4.002,5.115,6.684,12.952,3.112,18.071
	c-2.216,3.177-4.103,4.714-5.936,4.84c-0.082,0.005-0.163,0.008-0.243,0.008c-1.779,0-3.029-1.353-4.041-2.449
	c-0.163-0.176-0.323-0.35-0.484-0.517c-1.114-1.155-2.549-4.269-3.733-7.168l-4.387,3.554c-0.053,0.047-1.713,1.461-5.042,1.461
	c-0.462,0-0.956-0.027-1.482-0.089c-0.196-0.023-0.516-0.054-0.922-0.09l2.709,30.821l85.01-1.298L345.48,382.276z M226.057,328.483
	c0.535,0.363,1.782,1.079,3.011,0.879c0.767-0.128,1.419-0.601,1.988-1.441l0.1-2.225c-1.86,0.493-3.88,0.609-5.513,0.589
	L226.057,328.483z M287.626,298.506l31.386-1.114l-1.426-10.32c-2.654,0.473-5.254,2.716-5.282,2.741
	c-0.186,0.162-0.421,0.248-0.659,0.248c-0.115,0-0.23-0.02-0.342-0.061c-0.343-0.125-0.591-0.426-0.646-0.786l-3.209-20.777
	c-0.018-0.12-0.014-0.239,0.009-0.353c0.002-0.009,0.008-0.017,0.01-0.026c0.026-0.11,0.068-0.213,0.128-0.307
	c0.021-0.033,0.052-0.058,0.077-0.089c0.053-0.066,0.11-0.127,0.179-0.178c0.014-0.01,0.021-0.026,0.035-0.035l6.406-4.216
	l-1.262-9.131l-30.181,1.066c4.033,4.652,6.407,11.951,7.061,21.783C290.514,286.032,289.744,293.241,287.626,298.506z
	 M314.594,265.427l-4.599,3.027c1.291,0.803,3.673,0.847,5.121,0.746L314.594,265.427z M309.802,270.586l2.574,16.667
	c1.188-0.809,3.007-1.826,4.936-2.156l-1.922-13.91C314.144,271.291,311.721,271.359,309.802,270.586z M344.703,295.744
	l-1.716-16.554l-12.555,11.695l1.811,17.462L344.703,295.744z M346.08,289.627l4.097-3.249c0.26-0.326,1.507-2.071,0.585-4.383
	c-0.97-2.433-2.6-2.142-3.06-2.004l-2.438,1.759L346.08,289.627z M341.099,278.216l-2.81,0.131l-12.827,11.973l1.94,19.119
	l2.952,0.093l-1.963-18.934c-0.032-0.312,0.084-0.621,0.313-0.835L341.099,278.216z M370.426,310.854l2.179,27.792l7.893-0.245
	l-5.122-27.862C373.832,310.638,372.148,310.745,370.426,310.854z M385.567,366.019c0.003,0,0.005,0.001,0.008,0.001l-4.712-25.629
	l-8.102,0.251l2.026,25.842L385.567,366.019z M365.882,311.14l3.617,55.573l3.289-0.142l-4.358-55.591
	C367.577,311.034,366.724,311.087,365.882,311.14z M356.844,367.259l10.656-0.46l-1.688-25.941l-7.464,0.231L356.844,367.259z
	 M360.047,311.5l-1.585,27.584l7.219-0.224l-1.796-27.596C362.531,311.348,361.235,311.428,360.047,311.5z M358.038,311.62
	c-1.381,0.082-2.507,0.146-3.258,0.184l-2.654,59.442l2.493-0.108L358.038,311.62z M392.456,298.696l-4.368-47.436l-73.024,2.965
	l4.323,31.28c0.08,0.144,0.137,0.301,0.137,0.477c0,0.074-0.027,0.14-0.042,0.21l2.002,14.488l3.01-0.084l-1.073-10.566
	c-0.031-0.311,0.084-0.619,0.313-0.832l13.458-12.562c0.174-0.162,0.399-0.257,0.636-0.268l5.9-0.275
	c0.015,0,0.028,0.007,0.043,0.007c0.119,0,0.239,0.012,0.355,0.055c0.113,0.043,0.211,0.11,0.299,0.187
	c0.018,0.016,0.033,0.033,0.05,0.049c0.068,0.068,0.124,0.144,0.17,0.228c0.012,0.022,0.027,0.041,0.037,0.064
	c0.043,0.096,0.075,0.197,0.086,0.304l0.256,2.468l1.625-1.172c0.069-0.05,0.145-0.091,0.224-0.122
	c1.352-0.523,4.291-0.55,5.744,3.093c1.474,3.693-0.895,6.398-0.996,6.512c-0.038,0.042-0.079,0.081-0.124,0.116l-5.174,4.104
	l0.417,4.022c0.03,0.298-0.073,0.594-0.284,0.807l-3.219,3.256L392.456,298.696z M268.876,251.641l-2.008,0.923
	c-3.472,2.123-10.277,8.807-8.781,28.218c1.517,19.684,11.028,24.123,15.499,25.122l2.479,0.299
	c0.071,0.001,3.231,0.115,6.307-3.021c3.11-3.17,6.595-10.271,5.542-26.099c-0.752-11.287-3.787-18.992-9.021-22.9
	C274.362,250.799,269.583,251.511,268.876,251.641z M211.68,297.363l2.075-0.059c-2.447-3.114-4.793-8.17-3.19-15.254l-2.228,0.677
	C207.727,284.513,205.887,291.46,211.68,297.363z M218.669,299.279l48.36,5.833c-4.76-3.294-9.85-10.1-10.935-24.178
	c-1.047-13.589,1.78-21.33,4.982-25.709l-46.378,21.31C207.341,291.217,217.168,298.308,218.669,299.279z M220.995,301.574
	l1.104,5.87c0.563,0.139,1.202,0.295,1.956,0.444c2.859,0.565,3.229,0.433,5.008-0.205c0.372-0.133,0.796-0.285,1.303-0.453
	c0.675-0.224,1.203-0.399,1.641-0.538l0.169-3.769L220.995,301.574z M180.73,371.801c-0.128,0.537-0.666,0.869-1.206,0.74
	c-0.537-0.129-0.868-0.668-0.74-1.205c0.144-0.603,0.365-1.278,0.621-1.986c-3.119,3.949-7.552,10.009-9.565,14.869
	c0.029,0.018,0.063,0.023,0.091,0.045c0.159,0.123,15.999,12.246,23.227,4.31c10.455-11.485,28.288-63.298,28.467-63.82
	c0.155-0.453,0.606-0.737,1.085-0.666c0.071,0.012,7.159,0.969,10.391-1.409c2.634-1.938,2.307-12.353,1.416-14.436
	c-0.727-0.041-1.061,0.069-3.521,0.886c-0.489,0.162-0.898,0.309-1.258,0.438c-2.072,0.743-2.813,0.928-6.07,0.285
	c-0.85-0.168-1.571-0.347-2.189-0.499c-2.236-0.554-2.27-0.488-2.669,0.309c-0.793,1.581,0.055,3.81,0.064,3.832
	c0.133,0.333,0.077,0.711-0.145,0.991C218.381,314.922,183.912,358.502,180.73,371.801z M197.319,311.507
	c-2.722-2.557-4.388-3.251-5.176-3.434c0.056,1.171,0.184,2.033,0.375,2.294c1.087,0.859,2.027,3.135,2.392,5.119
	c0.056,0.021,0.114,0.027,0.167,0.058c0.184,0.108,3.354,2.021,5.625,5.798C200.45,317.909,199.64,313.687,197.319,311.507z
	 M198.682,255.4c0.043,0.03,0.092,0.047,0.131,0.085c0.139,0.136,2.546,2.585,4.004,8.732c0.023-0.012,0.038-0.033,0.061-0.043
	c3.811-1.665,13.642-7.181,13.372-12.643c-0.081-1.645-0.616-2.915-1.59-3.776c-1.747-1.547-4.4-1.373-4.426-1.37
	c-0.034,0.002-0.064-0.011-0.097-0.012l-0.141,0.027C204.318,247.581,201.021,251.296,198.682,255.4z M150.537,282.941
	l15.255-11.403c1.053-3.103,2.477-5.832,4.139-8.219c0.208-0.298,0.989-1.043,1.583-0.627c0.635,0.444,0.431,1.229,0.198,1.559
	c-1.423,2.012-2.653,4.297-3.625,6.848c6.286-0.315,19.14-1.495,22.351-4.256c1.276-1.098,2.321-3.491,3.53-6.263
	c1.796-4.115,4.037-9.25,8.308-12.706l-7.074,1.352c-0.06,0.024-0.113,0.061-0.179,0.073c-0.148,0.028-10.436,2.106-18.748,9.78
	c-0.179,0.165-1.132,0.779-1.91,0.346c-0.535-0.297-0.172-1.118,0.074-1.354c6.728-6.43,14.814-9.271,18.374-10.277
	c-2.54-2.553-8.836-8.435-13.558-9.093c-0.681-0.095-1.404-0.139-2.155-0.139c-5.691,0-13.102,2.561-17.794,5.313
	C142.623,253.657,145.298,268.987,150.537,282.941z M172.112,300.345c-1.344-0.945-2.459-1.914-3.255-2.788
	c-2.119-0.24-5.841-1.77-7.316-6.309c-1.152-3.547-0.281-5.307,0.653-6.159c1.191-1.087,3.044-1.21,5.083-0.332
	c0.618,0.266,0.925,0.292,1.05,0.283c0.088-0.372-0.117-1.659-1.335-3.87l-2.745-5.98l-12.955,9.683
	C152.563,287.809,158.314,299.078,172.112,300.345z M172.906,302.411l2.187,8.813c2.004,0.916,7.493,3.575,9.855,6.21
	c0.037,0.02,0.078,0.026,0.114,0.051c0.19,0.136,0.302,0.332,0.362,0.54c0.267,0.378,0.465,0.752,0.562,1.118
	c0.479,1.808,3.415,5.35,5.442,7.599c0.662-3.461,1.536-8.206,1.637-9.409c0.144-1.695-1.007-4.786-1.838-5.448
	c-1.135-0.904-1.245-4.238-1.069-7.371c-1.429,0.398-2.877,0.589-4.316,0.589c-1.449,0-2.887-0.182-4.284-0.495
	c-0.41-0.092-0.938-0.479-0.753-1.278c0.155-0.666,0.938-0.678,1.204-0.62c4.043,0.885,8.443,0.52,12.259-2.489
	c8.309-6.552,8.07-13.773,7.709-24.704c-0.027-0.828-0.055-1.674-0.08-2.542c-0.287-9.97-3.266-14.53-4.2-15.723
	c-0.696,1.395-1.313,2.797-1.894,4.128c-1.307,2.996-2.437,5.584-4.06,6.979c-4.477,3.849-21.598,4.671-24.768,4.792l-1.089,0.814
	l2.892,6.305c1.647,2.984,2.004,5.076,1.028,6.152c-0.692,0.763-1.809,0.82-3.317,0.171c-1.268-0.545-2.368-0.555-2.945-0.027
	c-0.695,0.634-0.731,2.115-0.098,4.063c1.552,4.779,5.881,4.959,5.924,4.96c0.285,0.009,0.552,0.138,0.735,0.355
	c1.348,1.597,3.963,3.637,7.169,5.137c0.494,0.24,0.975,0.831,0.672,1.398c-0.356,0.668-0.936,0.579-1.526,0.356
	c-0.299-0.139-0.588-0.287-0.877-0.435c-0.083,0.024-0.165,0.055-0.256,0.057c-0.205,0.004-0.412,0.006-0.613,0.006
	C174.071,302.464,173.483,302.445,172.906,302.411z M166.886,319.119c2.608,4.273,8.936,10.422,11.825,13.129
	c0.835-7.23,3.405-12.053,4.479-13.804c-1.844-1.8-6.183-4.182-9.357-5.593c-0.282-0.126-0.49-0.374-0.564-0.673l-0.949-3.823
	c-0.338,0.189-0.842,0.566-1.516,1.345C169.464,311.248,167.631,316.675,166.886,319.119z M150.673,352.237
	c1.164,16.022,12.723,29.244,16.596,33.247c2.199-7.388,11.136-18.19,13.474-20.934c-3.544-4.599-5.652-9.766-6.907-14.413
	c-0.142-0.527-0.243-1.543,0.534-1.757c1.002-0.275,1.347,0.929,1.503,1.498c1.193,4.339,3.165,9.102,6.369,13.31
	c5.777-10.853,17.1-26.547,25.303-37.452c-0.183-1.017-0.364-1.889-0.542-2.577c-0.313-0.778-0.523-1.339-0.618-1.601
	c-0.966-1.329-2.684-2.565-4.058-3.419c0.74,4.288,0.416,8.387,0.392,8.674c-0.042,0.498-0.445,0.889-0.944,0.915
	c-0.018,0.001-0.036,0.001-0.053,0.001c-0.477,0-0.891-0.339-0.981-0.812c-0.902-4.696-4.114-7.717-5.734-8.978
	c-0.331,2.595-1.92,10.751-1.992,11.119c-0.071,0.366-0.34,0.662-0.698,0.768c-0.094,0.027-0.189,0.041-0.284,0.041
	c-0.268,0-0.528-0.107-0.72-0.306c-0.603-0.625-5.534-5.797-6.968-9.098c-1.262,2.349-3.394,7.22-3.823,13.96
	c-0.024,0.383-0.265,0.717-0.62,0.862c-0.122,0.05-0.251,0.074-0.378,0.074c-0.242,0-0.481-0.088-0.667-0.256
	c-0.401-0.359-9.241-8.315-13.154-14.128c-1.769,2.154-5.882,6.86-9.757,9.048C152.704,331.854,150.871,339.781,150.673,352.237z
	 M137.047,355.225l3.772,0.592c3.832-5.406,6.965-6.282,7.898-6.419c0.039-1.097,0.095-2.144,0.162-3.16
	C141.826,349.155,138.38,353.242,137.047,355.225z M163.363,525.541l-14.139-104.354l0,0l-2.869-20.585
	c-1.539-0.103-2.781-0.187-3.641-0.244l17.65,124.93L163.363,525.541z M168.008,522.392l-9.704-71.848l-3.164-0.582l10.127,74.742
	L168.008,522.392z M209.071,477.074l-2.468-16.86l-44.94,0.257l2.247,16.636C178.927,477.094,193.973,477.082,209.071,477.074z
	 M219.126,531.95l2.976,0.252l-11.254-71.988l-2.286-0.421L219.126,531.95z M225.563,528.67l-10.215-68.143l-0.203,0.152
	c-0.009,0.007-0.02,0.009-0.03,0.016c-0.029,0.021-0.064,0.032-0.095,0.05c-0.077,0.042-0.156,0.076-0.24,0.096
	c-0.019,0.005-0.033,0.018-0.053,0.021c-0.06,0.012-0.121,0.016-0.179,0.016h-0.001l0,0l0,0h-0.001
	c-0.059,0-0.119-0.006-0.179-0.016l-1.432-0.263l10.98,70.238L225.563,528.67z M221.973,477.068l-2.478-16.927l-2.181,0.012
	l2.536,16.916C220.557,477.069,221.265,477.068,221.973,477.068z M224.923,483.419l2.976,0.251l-4.29-27.445
	c-0.298-0.437-0.585-0.85-0.859-1.236l-1.792,1.34L224.923,483.419z M231.36,480.139l-2.321-15.43
	c-0.927-1.513-1.866-3.018-2.774-4.441l3.445,22.036L231.36,480.139z M234.882,477.063c-0.631-2.4-1.051-4.036-1.179-4.537
	c-0.602-1.04-1.268-2.172-1.971-3.355l1.187,7.893C233.574,477.064,234.228,477.063,234.882,477.063z M270.217,520.357
	c-0.973,1.185-1.646,3.071-2.079,4.854c3.184-0.013,5.879-0.153,7.094-0.454C274.295,523.558,272.593,521.975,270.217,520.357z
	 M260.376,528.047c-0.001,0.023-0.013,0.041-0.015,0.064c-0.123,0.439-0.211,0.974-1.059,0.974c-0.49,0-0.847-0.624-0.922-1.137
	c0.011-0.367,0.041-0.717,0.067-1.072c-4.591-0.337-8.436-0.894-9.264-1.515c-0.346-0.259-0.635-0.61-0.885-1.012
	c-0.236,0.264-0.492,0.786-0.4,1.798c0.14,1.539,0.281,2.752,0.371,3.477c7.401,0.958,24.957,2.863,28.732,1.606
	c1.054-0.352,1.738-0.915,2.091-1.724c0.619-1.417,0.086-3.225-0.18-3.953l-1.354-0.625c0.035,0.401-0.101,0.803-0.429,1.105
	c-0.895,0.822-4.784,1.162-9.396,1.178c-0.064,0.394-0.116,0.762-0.155,1.087c-0.034,0.518-0.081,1.393-1.103,1.32
	c-0.624-0.045-0.846-0.668-0.923-1.213c0.187-1.854,0.995-7.695,3.926-10.151l-4.666-2.735
	C263.595,517.023,260.555,521.423,260.376,528.047z M259.103,515.06c-0.382-0.119-0.656-0.454-0.696-0.852l-4.62-44.963
	c-4.915,3.453-12.272,3.996-16.325,3.996c-0.58,0-1.088-0.011-1.515-0.026c1.649,6.363,8.964,34.212,12.892,42.888
	c0.064,0.142,0.094,0.297,0.088,0.453c-0.099,2.464,0.287,6.328,1.456,7.203c0.802,0.508,4.205,0.919,8.276,1.173
	c0.606-3.944,2.066-6.932,3.296-8.86C261.038,515.716,260.099,515.371,259.103,515.06z M281.789,498.416
	c-0.663,0.798-1.191,1.938-1.598,3.127c2.338,0.08,4.209,0.02,5.056-0.241C284.756,500.403,283.601,499.538,281.789,498.416z
	 M272.668,504.404c-0.133,0.532-0.311,1.067-1.024,1.022c-0.668-0.042-0.98-0.579-0.965-1.175c0.046-0.513,0.11-1.009,0.186-1.492
	c-5.35-0.7-10.172-1.777-11.001-2.838c-0.032-0.042-0.056-0.091-0.087-0.135c-0.099,0.072-0.212,0.129-0.338,0.161
	c-0.073,0.023-0.279,0.109-0.451,0.364l0.443,4.313c7.301,1.105,23.379,3.228,26.95,2.259c1.041-0.281,1.71-0.765,2.048-1.478
	c0.535-1.13,0.139-2.584-0.084-3.223l-0.95-0.441c-0.049,0.432-0.301,0.884-0.91,1.199c-0.811,0.42-2.651,0.601-5.007,0.601
	c-0.586,0-1.213-0.015-1.856-0.036c-0.096,0.399-0.18,0.785-0.249,1.143c-0.112,0.466-0.378,1.001-1.047,1.001
	c-0.49,0-0.936-0.49-0.963-1.164c0.398-2.238,1.408-6.282,3.704-8.164l-4.054-2.563C275.87,495.091,273.186,498.78,272.668,504.404z
	 M271.687,491.589l6.69-44.647c-2.709,0.681-6.231,1.302-10.111,1.302c-2.644,0-5.449-0.296-8.264-1.048
	c-0.053,3.92-0.102,19.779,1.966,43.774c0.011,0.131-0.003,0.262-0.042,0.387c-0.742,2.353-1.382,6.183-0.484,7.334
	c0.818,0.74,5.09,1.551,9.828,2.125c0.761-3.024,2.016-5.327,3.072-6.857c-0.703-0.432-1.425-0.88-2.203-1.377
	C271.805,492.367,271.628,491.979,271.687,491.589z M333.003,477.057l2.314-17.577l-56.846,0.325l-2.585,17.25
	C294.881,477.052,313.91,477.052,333.003,477.057z M352.218,383.636c-1.971-0.253-3.547-0.559-4.786-0.867l-18.981,144.192
	c2.566,2.959,5.914,1.253,6.988,0.579L352.218,383.636z M372.283,477.073l-0.818-17.8l-26.07,0.149l-2.057,17.638
	C352.976,477.064,362.628,477.068,372.283,477.073z M382.323,511.873l-7.87-128.048c-1.053,0.073-2.136,0.142-3.271,0.202
	c-0.4,0.021-0.781,0.036-1.17,0.054l5.907,128.526C378.686,514.64,381.42,512.661,382.323,511.873z M408.337,477.099l-3.698-18.015
	l-23.548,0.134l1.098,17.86C390.894,477.084,399.62,477.092,408.337,477.099z M426.896,522.707l-31.387-142.176
	c-1.236,0.379-2.79,0.79-4.726,1.198c0.01,0.032,0.032,0.058,0.039,0.092l29.16,142.063
	C421.111,524.456,424.606,525.853,426.896,522.707z M483.439,453.029c0.091-0.157,0.211-0.299,0.383-0.39
	c0.511-0.268,1.002-0.536,1.483-0.804c4.087-2.91,7.47-7.51,7.191-14.767l-16.038-230.824l-81.041,2.947
	c0.997,2.268,1.778,4.912,2.187,7.993c1.336,10.07-1.402,17.43-3.377,21.225l16.515-0.785c0.133-0.004,0.256,0.018,0.371,0.055
	c0.008,0.003,0.014,0.008,0.022,0.011c0.109,0.039,0.206,0.096,0.293,0.167c0.023,0.019,0.041,0.043,0.062,0.065
	c0.06,0.06,0.113,0.125,0.156,0.2c0.024,0.041,0.041,0.084,0.059,0.128c0.015,0.037,0.038,0.068,0.049,0.107
	c0.01,0.037,0.005,0.074,0.011,0.111c0.005,0.029,0.02,0.052,0.022,0.081l0.734,10.037l35.56-1.256
	c0.51-0.023,1.015,0.412,1.034,0.964c0.02,0.552-0.412,1.015-0.964,1.035l-35.484,1.253l0.518,7.087l5.011-0.369
	c0.722-2.166,1.482-3.277,1.551-3.373c0.169-0.238,0.434-0.391,0.725-0.417l12.1-1.104c0.04-0.003,0.08-0.004,0.119-0.003
	c0.319,0.009,7.851,0.382,9.314,14.332c1.504,14.329-5.927,16.945-6.244,17.049c-0.085,0.028-0.173,0.044-0.263,0.049l-11.794,0.594
	c-0.017,0.001-0.033,0.001-0.05,0.001c-0.224,0-0.441-0.075-0.618-0.214c-0.098-0.077-1.246-1.017-2.523-3.048l-5.58,0.412
	l0.18,2.455c0.025,0.338-0.123,0.666-0.394,0.87l-12.612,9.543l48.186-1.71c0.505-0.016,1.016,0.412,1.034,0.964
	c0.02,0.552-0.411,1.015-0.964,1.035l-51.031,1.811l-5.18,3.92c-0.025,0.019-0.056,0.028-0.082,0.044
	c-0.035,0.022-0.069,0.04-0.107,0.057c-0.081,0.037-0.165,0.061-0.253,0.076c-0.024,0.004-0.044,0.018-0.069,0.021
	c-0.018,0.002-0.037,0.002-0.055,0.002c-0.003,0-0.006,0.002-0.009,0.002l-6.54,0.183c0.003,0.019,0.016,0.035,0.018,0.055
	c0.689,5.719-2.499,7.966-4.484,8.805l4.864,28.479l66.075-2.047c0.538-0.055,1.014,0.416,1.031,0.968
	c0.017,0.553-0.417,1.014-0.969,1.031l-65.798,2.039l4.345,25.441c2.409,0.35,6.477,2.063,7.715,6.679
	c0.019,0.07,0.03,0.143,0.033,0.216l0.236,5.47c0.016,0.354-0.157,0.688-0.454,0.881c-0.078,0.051-0.73,0.46-2.263,1.035
	c0.017,0.046,0.048,0.083,0.059,0.132l5.599,25.362l55.694-0.85h0.016c0.546,0,0.991,0.438,1,0.984
	c0.009,0.553-0.433,1.007-0.984,1.016l-55.285,0.844l10.96,49.646l57.658-0.328C472.505,456.661,478.176,456.044,483.439,453.029z
	 M93.158,178.406c-2.91,0-5.277-2.367-5.277-5.277c0-2.91,2.367-5.277,5.277-5.277s5.277,2.367,5.277,5.277
	C98.436,176.039,96.068,178.406,93.158,178.406z M93.158,176.406c1.807,0,3.277-1.47,3.277-3.277c0-1.807-1.47-3.277-3.277-3.277
	s-3.277,1.47-3.277,3.277S91.352,176.406,93.158,176.406z M102,204.97c0,2.91-2.367,5.277-5.277,5.277s-5.277-2.367-5.277-5.277
	s2.367-5.277,5.277-5.277S102,202.06,102,204.97z M100,204.97c0-1.807-1.47-3.277-3.277-3.277s-3.277,1.47-3.277,3.277
	s1.47,3.277,3.277,3.277S100,206.777,100,204.97z M532.145,477.237l-6.262-0.009h-0.001c-0.552,0-0.999,0.447-1,0.999
	s0.446,1,0.999,1.001l6.262,0.009h0.001c0.552,0,0.999-0.447,1-0.999S532.697,477.238,532.145,477.237z M516.142,477.215
	l-10.488-0.015h-0.001c-0.552,0-0.999,0.447-1,0.999s0.446,1,0.999,1.001l10.488,0.015h0.001c0.552,0,0.999-0.447,1-0.999
	S516.694,477.216,516.142,477.215z M64.155,477.227L64.155,477.227l-6.978,0.011c-0.552,0.001-0.999,0.449-0.999,1.001
	s0.448,0.999,1,0.999h0.001l6.977-0.011c0.553-0.001,1-0.449,0.999-1.002C65.154,477.673,64.707,477.227,64.155,477.227z
	 M430.985,279.615c-8.197-10.053-0.967-22.634-0.893-22.76c0.089-0.15,0.215-0.275,0.366-0.362c0.096-0.054,0.968-0.521,2.167-0.117
	c1.429,0.481,2.681,1.965,3.72,4.408c2.664,6.262,1.631,13.703,0.286,17.177c-0.551,1.422-1.447,2.002-2.103,2.239
	c-0.395,0.142-0.787,0.196-1.155,0.196c-1.089,0-1.974-0.47-2.1-0.541C431.163,279.795,431.065,279.713,430.985,279.615z
	 M432.398,278.181c0.334,0.141,0.959,0.32,1.459,0.137c0.387-0.143,0.684-0.495,0.909-1.077c1.18-3.048,2.152-9.999-0.261-15.672
	c-1.058-2.486-2.032-3.132-2.519-3.296c-0.141-0.047-0.263-0.061-0.354-0.061C430.616,260.171,426.006,270.121,432.398,278.181z"></path>
</svg>