<?xml version="1.0" standalone="no"?>
<svg version="1.1" id="Layer_1" xmlns="http://www.w3.org/2000/svg" xmlns:xlink="http://www.w3.org/1999/xlink" x="0px" y="0px" width="595.276px" height="595.276px" viewBox="0 0 595.276 595.276" enable-background="new 0 0 595.276 595.276" xml:space="preserve">
<path id="color_x5F_5" fill-rule="evenodd" clip-rule="evenodd" fill="#FFD2BB" d="M377.542,447.933
	c0,0,0.079-21.536,5.585-20.072c5.505,1.464,7.115,5.434,7.115,5.434s-0.684-16.848,6.654-13.358
	c7.338,3.491,7.014,13.664,7.014,13.664s0.212-11.08,4.859-6.878c4.647,4.203,3.895,11.021,3.895,11.021s4.842-18.754,12.191-11.062
	c7.349,7.693,0.717,21.51,0.717,21.51L377.542,447.933z M198.834,447.933c0,0-0.08-21.536-5.585-20.072
	c-5.505,1.464-7.115,5.434-7.115,5.434s0.684-16.848-6.654-13.358s-7.014,13.664-7.014,13.664s-0.212-11.08-4.859-6.878
	c-4.647,4.203-3.895,11.021-3.895,11.021s-4.842-18.754-12.191-11.062c-7.35,7.693-0.717,21.51-0.717,21.51L198.834,447.933z"></path>
<path id="color_x5F_4" fill-rule="evenodd" clip-rule="evenodd" fill="#ffadbb" d="M419.442,150.968
	c21.709,26.538,34.739,60.444,34.739,97.371c0,31.096-9.24,60.05-25.121,84.265l-15.959-9.877
	c14.105-21.343,22.319-46.914,22.319-74.388c0-32.571-11.545-62.468-30.763-85.817L419.442,150.968z M195.335,150.968
	c-21.71,26.538-34.739,60.444-34.739,97.371c0,31.096,9.239,60.05,25.121,84.265l15.958-9.877
	c-14.104-21.343-22.318-46.914-22.318-74.388c0-32.571,11.545-62.468,30.762-85.817L195.335,150.968z M390.167,173.845
	c16.777,20.223,26.866,46.19,26.866,74.493c0,23.926-7.209,46.18-19.572,64.708l-12.111-7.496
	c11.017-16.347,17.45-36.034,17.45-57.212c0-25-8.964-47.923-23.852-65.726L390.167,173.845z M224.609,173.845
	c-16.777,20.223-26.867,46.19-26.867,74.493c0,23.926,7.21,46.18,19.573,64.708l12.11-7.496
	c-11.017-16.347-17.449-36.034-17.449-57.212c0-25,8.964-47.923,23.851-65.726L224.609,173.845z"></path>
<path id="color_x5F_3" fill-rule="evenodd" clip-rule="evenodd" fill="#fd5959" d="M531.723,452.556H57.902v-7.896h91.557
	c0.677,2.143,1.344,3.534,1.344,3.534l48.032-0.261c0,0-0.005-1.315-0.095-3.273h24.145v3.328h137.247v-3.328h17.506
	c-0.091,1.958-0.095,3.273-0.095,3.273l48.032,0.261c0,0,0.667-1.39,1.344-3.534h104.805L531.723,452.556L531.723,452.556z
	 M487.946,323.591l19.491,15.554l-9.129,11.44l-19.491-15.554L487.946,323.591z M132.013,337.638l-20.362-10.443v20.888
	L132.013,337.638z M264.03,260.514c-4.726-24.227,8.866-48.943,32.823-57.447c3.207-1.138,6.452-1.934,9.697-2.405l33.268,93.733
	c-2.816,1.679-5.837,3.107-9.044,4.246c-23.894,8.481-49.952-2.059-61.603-23.727L264.03,260.514z M96.872,243.353l-15.527,3.181
	l4.93,24.067l15.528-3.181L96.872,243.353z"></path>
<path id="color_x5F_2" fill-rule="evenodd" clip-rule="evenodd" fill="#FBC02D" d="M360.131,447.988H222.884v-19.694h41.129
	V260.466l59.824,167.54l0.068,0.056l-0.046,0.007l0.081,0.225h36.191V447.988z M482.673,338.109l11.682,9.321l-18.627,23.343
	l-11.681-9.321L482.673,338.109z M138.89,356.428H99.197c-5.177,0-9.38-4.203-9.38-9.38V328.29c0-5.177,4.203-9.38,9.38-9.38h39.694
	c5.177,0,9.38,4.203,9.38,9.38v18.758C148.27,352.218,144.079,356.416,138.89,356.428z M132.013,337.638l-20.362-10.443v20.888
	L132.013,337.638z M491.741,326.62c-0.961-3.585-0.266-7.564,2.224-10.685c4.164-5.218,11.78-6.074,16.997-1.91
	c5.218,4.163,6.074,11.78,1.91,16.997c-2.49,3.121-6.216,4.681-9.925,4.539L491.741,326.62z M522.1,223.154
	c5.27,0.012,9.525,4.276,9.525,9.525v19.053c0,5.258-4.268,9.525-9.525,9.525h-19.053c0,0-5.544,6.049-9.885,10.784
	c-0.432,0.472-1.143,0.565-1.682,0.221c-0.54-0.346-0.754-1.028-0.508-1.62l3.91-9.385h-8.165c-5.27-0.012-9.526-4.276-9.526-9.525
	V232.68c0-5.25,4.257-9.513,9.526-9.525L522.1,223.154L522.1,223.154z M99.974,222.518c0,0,8.435-3.87,12.858,4.079
	c1.505,2.705,1.848,9.099,1.848,9.099s1.859-0.378,4.136-0.84c5.435-1.105,10.839,2.033,12.576,7.3
	c2.057,6.209,2.278,12.417,1.275,18.625l-28.077,5.7l-4.931-22.395l4.249-2.191L99.974,222.518z M338.647,234.62
	c-0.116-1.569,0.127-3.188,0.777-4.737c2.2-5.248,8.248-7.721,13.495-5.519c5.248,2.201,7.721,8.248,5.519,13.496
	c-2.201,5.247-8.248,7.72-13.496,5.519c-1.568-0.658-2.888-1.66-3.911-2.882l-17.579,7.787l-2.126-5.992L338.647,234.62z
	 M133.582,171.66l3.874,9.297c0.223,0.536,0.029,1.155-0.46,1.467c-0.489,0.313-1.133,0.229-1.524-0.2
	c-4.177-4.556-9.684-10.564-9.684-10.564h-18.189c-5.02,0-9.095-4.075-9.095-9.095v-18.189c0-5.019,4.075-9.094,9.095-9.094h33.779
	c5.019,0,9.094,4.075,9.094,9.094v18.189c0,5.013-4.063,9.083-9.094,9.095H133.582z M488.346,172.765h-6.9v-11.222h-11.85v-6.534
	h11.85v-5.883h-11.85v-6.533h11.85V131.37h6.9v11.222h6.212V131.37h6.899v11.222h11.851v6.533h-11.851v5.883h11.851v6.534h-11.851
	v11.222h-6.899v-11.222h-6.212L488.346,172.765L488.346,172.765z M494.558,149.126h-6.212v5.883h6.212V149.126z"></path>
<path id="color_x5F_1" fill-rule="evenodd" clip-rule="evenodd" fill="#fc2b47" d="M263.264,260.468
	c-0.04-0.196-0.091-0.456-0.131-0.675c-1.969-11.292-0.057-23.193,5.358-33.285c7.339-13.673,21.158-23.643,36.408-26.34
	c1.184-0.209,1.543-0.288,1.881-0.22c0.209,0.095,0.372,0.248,0.476,0.462l14.505,40.869l16.24-7.193
	c-0.058-2.642,0.753-5.301,2.461-7.333c2.037-2.423,5.14-3.874,8.306-3.942c0.136-0.001,0.135-0.001,0.27-0.001
	c3.01,0.046,5.955,1.335,7.988,3.524c3.97,4.274,3.732,11.742-0.658,15.723c-4.187,3.796-11.376,3.614-15.347-0.455
	c-0.064-0.065-0.126-0.131-0.188-0.198l-16.442,7.283l16.133,45.457c0.132,0.572-0.374,0.926-0.861,1.211
	c-9.382,5.401-20.464,7.819-31.22,6.68c-14.303-1.515-27.735-9.266-36.278-20.961l52.301,146.471h35.664
	c0.065,0.009,0.13,0.017,0.194,0.026c0.315,0.13,0.508,0.367,0.555,0.723v15.617h15.999c0.133-5.098,0.46-10.26,2.695-14.522
	c0.767-1.463,2.081-2.796,4.407-2.059c2.104,0.667,4.045,1.851,5.517,3.509c0.093-3.104,0.32-6.286,1.643-9.118
	c0.734-1.57,1.931-3.031,3.983-3.006c4.21,0.142,7.571,4.757,8.825,9.426c0.448-1.449,1.253-3.107,2.908-3.115
	c1.761-0.009,3.103,1.593,4.188,3.179c1.113,1.625,1.795,3.52,2.15,5.466c0.106-0.281,0.214-0.56,0.325-0.839
	c0.3-0.747,0.618-1.486,0.966-2.212c1.721-3.586,4.339-7.9,8.495-6.201c4.088,1.671,6.161,7.037,6.086,12.241
	c-0.036,2.451-0.43,4.899-1.103,7.252h103.76l0.529,0.22l0.22,0.529v7.896c-0.13,0.651-0.462,0.692-0.462,0.692l-0.287,0.057H57.902
	c-0.651-0.13-0.692-0.462-0.692-0.462l-0.057-0.287v-7.896c0.13-0.652,0.462-0.692,0.462-0.692l0.287-0.057h90.511
	c-1.823-6.154-1.918-12.854,2.385-17.552c1.316-1.437,3.124-2.606,5.099-2.186c3.33,0.707,4.995,4.244,6.255,7.007
	c0.461,1.012,1.028,2.491,1.028,2.491c0.545-2.978,1.844-5.835,4.223-7.757c1.221-0.986,3.313-1.127,4.336,0.595
	c0.303,0.509,0.514,1.067,0.689,1.631c0.973-3.624,3.1-7.034,6.457-8.744c0.804-0.408,1.461-0.693,2.54-0.682
	c2.467,0.082,3.92,2.885,4.482,4.833c0.102,0.354,0.192,0.711,0.272,1.07c0.445,1.987,0.622,4.031,0.696,6.077
	c0,0-0.159,0.296,0.432-0.314c1.65-1.649,3.762-2.909,6.007-3.298c0.224-0.039,1.011,0.014,1.172,0.06
	c2.844,0.824,3.454,4.692,4.061,8.146c0.501,2.855,0.776,5.716,0.919,8.624h22.67v-15.617c0.057-0.433,0.297-0.689,0.749-0.749
	h40.38L263.264,260.468L263.264,260.468z M148.893,445.409H58.651v6.398h472.323v-6.398h-103.48
	c-0.339,0.993-1.79,3.524-1.925,3.534l-48.032-0.261c-1.082-0.092-0.745-0.998-0.731-1.689c0.013-0.525,0.024-1.054,0.036-1.584
	H360.88v2.58c-0.021,0.16-0.067,0.296-0.14,0.407c-0.146,0.264-0.551,0.335-0.609,0.342l0,0H222.884l0,0
	c-0.161-0.021-0.297-0.067-0.408-0.14c-0.264-0.146-0.335-0.551-0.342-0.609v-2.579h-22.608c0.023,0.657,0.039,1.316,0.051,1.98
	c0.014,0.825,0.061,1.225-0.739,1.293l-48.032,0.261C150.321,448.906,149.156,446.17,148.893,445.409z M426.281,444.345
	c2.033-6.11,2.42-13.01-2.282-17.459c-0.816-0.771-1.853-1.425-2.979-1.286c-2.381,0.293-3.655,2.763-4.648,4.613
	c-1.296,2.413-2.249,5.015-2.969,7.672c0,0-0.085,0.294-0.263,0.439c-0.606,0.496-1.212-0.178-1.182-1.36
	c0.065-3.7-1.029-7.784-4.103-10.021c-0.329-0.24-0.71-0.475-1.101-0.412c-1.292,0.212-1.353,1.834-1.59,2.866
	c-0.297,1.296-0.434,2.633-0.496,3.965c0,0,0.038,0.691-0.435,0.916c-0.49,0.234-1.072-0.17-1.069-0.797
	c0.003-0.534-0.009-0.58-0.02-0.804c-0.034-0.633-0.327-2.778-0.419-3.217c-0.746-3.51-2.633-7.058-5.913-8.729
	c-0.569-0.29-1.172-0.526-1.827-0.519c-1.959,0.065-2.681,2.383-3.074,3.749c-0.11,0.381-0.468,2.069-0.538,2.53
	c-0.341,2.222-0.449,4.484-0.383,6.732c0,0-0.003,0.458-0.306,0.679c-0.48,0.35-0.9,0.036-1.382-0.799
	c-1.374-2.319-3.84-4.086-6.494-4.545c-1.247-0.216-1.934,1.726-2.64,3.34c-1.911,4.37-1.865,15.23-1.867,15.288v0.002l46.789,0.254
	C425.515,446.46,426.281,444.345,426.281,444.345z M198.032,444.779c-0.094-5.14-0.318-10.422-2.557-14.695
	c-0.068-0.131-0.34-0.576-0.405-0.667c-0.424-0.591-1.042-1.015-2.105-0.694c-2.581,0.804-5.087,2.425-6.144,4.871
	c0,0-0.125,0.246-0.321,0.356c-0.46,0.259-1.089-0.1-1.116-0.679c0.142-3.954,0.204-8.212-1.863-11.581
	c-0.478-0.78-1.232-1.489-2.235-1.477c-4.984,0.169-8.144,8.071-8.073,13.347c0,0-0.02,0.501-0.392,0.702
	c-0.527,0.286-1.079-0.124-1.123-1.089c-0.124-2.235-0.093-4.861-1.602-6.366c-0.067-0.067-0.14-0.129-0.222-0.178
	c-0.933-0.562-2.248,0.872-3.308,2.422c-1.714,2.505-2.386,5.695-2.11,8.625c0,0-0.001,0.345-0.168,0.547
	c-0.411,0.498-1.104,0.389-1.468-0.882c-1.136-3.885-2.386-7.959-5.396-10.67c-0.999-0.899-2.514-1.386-3.798-0.708
	c-3.748,1.982-5.184,7.438-4.725,12.38c0.191,2.065,0.626,4.104,1.256,6.082c0.45,0.9,0.669,1.921,1.07,2.881l0.052,0.123
	l46.772-0.239h0.023v-0.007C198.067,446.794,198.029,445.108,198.032,444.779z M359.382,429.043H223.633v18.196h135.749V429.043z
	 M264.762,264.792v162.753h58.114l-54.411-152.379l0,0L264.762,264.792z M490.645,324.787c-0.691-6.877,4.872-13.796,12.261-14.14
	c0.206-0.007,0.411-0.01,0.617-0.01c5.894,0.078,11.357,4.61,12.491,10.341c0.962,4.86-1.171,10.18-5.224,13.02
	c-1.721,1.206-3.734,1.968-5.815,2.224l2.929,2.337c0.312,0.282,0.361,0.707,0.118,1.053l-9.129,11.44
	c-0.282,0.312-0.708,0.361-1.053,0.118l-3.369-2.688l-18.159,22.756c-0.274,0.301-0.605,0.43-1.053,0.119l-11.682-9.322
	c-0.301-0.274-0.43-0.604-0.118-1.053l18.159-22.757l-3.27-2.609c-0.313-0.282-0.361-0.708-0.119-1.053l9.129-11.44
	c0.148-0.164,0.231-0.284,0.638-0.281c0.127,0.017,0.178-0.005,0.414,0.162L490.645,324.787z M482.792,339.161L465.1,361.332
	l10.51,8.387l17.693-22.171L482.792,339.161z M139.021,318.163c5.199,0.1,9.893,4.527,9.997,9.997c0.04,6.34,0.04,12.681,0,19.02
	c-0.1,5.23-4.526,9.893-9.997,9.997c-13.318,0.085-26.638,0.085-39.955,0c-5.203-0.099-9.893-4.541-9.997-9.997
	c-0.041-6.339-0.041-12.68,0-19.02c0.099-5.202,4.54-9.893,9.997-9.997C112.383,318.08,125.702,318.08,139.021,318.163z
	 M99.198,319.66c-4.491,0.028-8.544,3.865-8.631,8.519c-0.041,6.327-0.041,12.655,0,18.982c0.084,4.457,3.923,8.431,8.518,8.518
	c13.306,0.085,26.612,0.085,39.917,0c4.458-0.084,8.431-3.923,8.518-8.518c0.04-6.327,0.04-12.655,0-18.982
	c-0.085-4.449-3.864-8.429-8.518-8.518C125.734,319.578,112.466,319.66,99.198,319.66z M483.14,337.523l15.05,12.009l8.195-10.27
	l-18.321-14.619c-2.732,3.424-5.463,6.847-8.194,10.27L483.14,337.523L483.14,337.523z M111.749,326.452
	c0.125,0.028,0.125,0.028,0.243,0.076l20.362,10.444c0.493,0.308,0.517,1.01,0,1.333l-20.362,10.443
	c-0.503,0.206-1.03,0.049-1.091-0.666v-20.888C110.955,326.562,111.097,326.421,111.749,326.452z M112.399,346.856l17.971-9.218
	l-17.971-9.218C112.399,328.42,112.399,346.856,112.399,346.856z M503.24,312.136c-6.711,0.151-12.481,6.906-10.855,13.973
	l10.833,8.71c0.86,0.015,1.143-0.023,1.71-0.099c5.346-0.716,9.794-5.724,9.834-11.149c0.044-5.861-4.955-11.278-11.113-11.434
	C503.512,312.135,503.376,312.135,503.24,312.136z M419.712,150.27c0.169,0.092,0.17,0.093,0.31,0.225
	c17.751,21.758,29.357,48.09,33.323,75.646c5.216,36.235-2.829,74.202-22.549,105.155c-0.811,1.272-1.12,2.373-2.132,1.946
	l-15.958-9.877c-0.66-0.542-0.033-1.348,0.422-2.048c10.626-16.473,17.669-35.307,20.309-54.724
	c4.94-36.327-5.656-74.414-28.914-103.048l-0.551-0.715c-0.098-0.331-0.035-0.634,0.222-0.897l14.785-11.554
	C419.428,150.114,419.519,150.223,419.712,150.27z M195.444,150.227c0.185,0.053,0.186,0.053,0.352,0.151l14.784,11.554
	c0.64,0.654-0.196,1.445-0.773,2.159c-22.764,28.33-33.424,66.074-28.47,102.5c2.703,19.871,10.031,39.098,20.964,55.724
	c0,0,0.247,0.655-0.232,1.049l-15.959,9.877c-0.778,0.329-1.285-0.631-1.764-1.37c-20.043-31.305-28.36-70.041-22.73-106.984
	c4.016-26.358,15.044-51.589,31.619-72.506c0.335-0.422,0.671-0.842,1.01-1.26C194.655,150.614,194.696,150.214,195.444,150.227z
	 M405.721,162.641c0.289,0.355,0.574,0.71,0.86,1.067c14.819,18.642,24.662,41.152,28.129,64.67
	c4.784,32.456-2.566,66.49-20.561,94.117l14.682,9.087c19.947-30.854,28.273-68.818,23.031-105.228
	c-3.907-27.146-15.5-53.238-32.495-74.292l-0.043-0.052C414.79,155.555,410.256,159.097,405.721,162.641z M195.409,152.063
	c-26.19,32.443-38.365,75.599-32.631,117.301c3.039,22.103,11.063,43.495,23.167,62.218l14.681-9.087
	c-11.041-16.951-18.23-36.31-20.858-56.326c-4.767-36.323,5.829-74.342,28.872-103.018l0.413-0.51l-13.602-10.63
	C195.437,152.029,195.423,152.046,195.409,152.063z M390.435,173.145c0.169,0.091,0.17,0.092,0.31,0.223
	c13.194,15.947,22.097,35.339,25.462,55.693c4.717,28.539-1.524,58.809-17.256,83.085c-0.675,1.041-0.854,2.006-1.884,1.538
	l-12.111-7.496c-0.596-0.49-0.123-1.208,0.283-1.819c8.367-12.721,13.9-27.363,15.915-42.465
	c3.597-26.959-3.976-55.137-21.074-76.717c-0.748-0.945-1.812-2.265-1.812-2.265c-0.101-0.332-0.038-0.636,0.221-0.9l11.218-8.767
	C389.826,173.184,389.889,173.013,390.435,173.145z M224.72,173.104c0.184,0.053,0.185,0.053,0.35,0.151l11.219,8.767
	c0.574,0.587-0.071,1.29-0.575,1.903c-11.1,13.637-18.638,30.061-21.561,47.342c-4.307,25.464,1.685,52.678,15.895,73.867
	c0,0,0.254,0.658-0.228,1.054l-12.111,7.496c-0.712,0.324-1.177-0.459-1.596-1.098c-15.811-24.277-22.198-54.371-17.647-82.886
	c3.271-20.494,12.234-40.135,25.369-56.095C223.835,173.606,223.909,173.088,224.72,173.104z M224.602,175.032
	c-18.531,22.761-27.875,52.504-25.819,81.594c1.381,19.555,7.937,38.796,18.582,55.14l0.173,0.263l10.833-6.706
	c-0.799-1.204-1.575-2.43-2.324-3.671c-12.874-21.309-17.589-47.312-13.175-71.759c3.093-17.134,10.591-33.29,21.682-46.917
	l0.205-0.249l-10.036-7.842C224.682,174.934,224.642,174.983,224.602,175.032z M380.018,182.728c0.184,0.224,0.367,0.448,0.55,0.674
	c11.12,13.808,18.752,30.594,21.626,48.179c4.137,25.314-1.483,51.989-15.705,73.614l-0.085,0.127l10.834,6.706
	c0.153-0.232,0.305-0.464,0.455-0.697c9.264-14.365,15.347-30.742,17.585-47.651c4.139-31.282-5.016-63.975-25.103-88.648
	l-0.121-0.147C386.709,177.499,383.363,180.114,380.018,182.728z M320.62,242.543l-14.569-41.048
	c-0.097,0.016-0.195,0.031-0.292,0.047c-10.831,1.813-21.034,7.221-28.502,15.256c-10.603,11.409-15.418,27.859-12.546,43.292
	l0.043,0.226l5.104,14.292c7.524,13.897,21.985,23.798,37.654,25.81c10.794,1.385,21.98-0.936,31.394-6.355l-17.64-49.699
	L320.62,242.543L320.62,242.543z M503.377,262.007l-9.667,10.547c-1.28,1.334-4.347,0.148-3.432-2.191l3.481-8.356
	c-3.688,0-7.599,0.553-10.808-0.713c-3.757-1.482-6.429-5.293-6.508-9.43c-0.04-6.438-0.04-12.877,0-19.316
	c0.101-5.29,4.591-10.036,10.142-10.142c11.883-0.076,23.766-0.076,35.648,0c5.28,0.1,10.037,4.607,10.142,10.142
	c0.043,6.439,0.043,12.878,0,19.317c-0.101,5.296-4.677,10.037-10.142,10.142h-0.13H503.377z M494.882,260.509
	c0.814,0.067,0.804,0.69,0.692,1.038c-1.307,3.136-2.684,6.244-3.92,9.409c-0.169,0.497,0.538,1.016,0.962,0.574l9.879-10.777
	c0.155-0.143,0.34-0.226,0.552-0.244c6.389,0,12.777,0.039,19.166,0c4.526-0.087,8.573-3.93,8.663-8.663
	c0.042-6.426,0.042-12.852,0-19.279c-0.087-4.532-3.99-8.574-8.663-8.662c-11.831-0.076-23.662-0.001-35.494-0.001
	c-4.558,0.029-8.687,3.93-8.778,8.663c-0.04,6.426-0.04,12.852,0,19.279c0.087,4.567,4.021,8.634,8.778,8.663H494.882z
	 M96.973,242.611c0.528,0.102,0.572,0.361,0.633,0.592l4.93,24.067c0.062,0.416-0.176,0.776-0.583,0.884l-15.527,3.181
	c-0.417,0.061-0.777-0.177-0.885-0.583l-4.93-24.067c-0.062-0.417,0.176-0.777,0.583-0.885l15.528-3.181
	C96.817,242.605,96.754,242.594,96.973,242.611z M82.229,247.117l4.629,22.6l14.06-2.88l-4.629-22.6
	C91.603,245.198,86.915,246.157,82.229,247.117z M104.752,220.827c4.363,0.069,8.339,3.175,9.581,7.587
	c0.543,1.928,0.804,3.926,0.993,5.92l0.04,0.458c4.368-0.887,8.909-1.267,12.483,1.314c4.334,3.131,5.662,9.216,6.057,15.021
	c0.215,3.166,0.026,6.401-0.452,9.478c-0.017,0.112,0.064,0.711-0.637,0.91l-28.077,5.7c-0.686,0.09-0.804-0.313-0.881-0.572
	l-4.931-22.395c-0.072-0.501-0.014-0.581,0.389-0.827l3.745-1.932l-3.821-18.823c0,0-0.213-0.586,0.749-0.966
	C101.506,221.121,103.128,220.821,104.752,220.827z M104.854,222.327c-0.116-0.002-2.789,0.245-3.953,0.636l3.741,18.783
	c0,0,0.097,0.517-0.391,0.815l-3.737,1.927l4.649,21.112l26.843-5.449c0.92-6.041,0.689-12.315-1.446-18.103
	c-0.11-0.298-0.234-0.591-0.372-0.878c-1.938-4.047-6.711-6.47-11.226-5.58l-4.134,0.84c-0.714,0.092-0.898-0.789-0.953-1.486
	C113.391,229.193,111.459,222.508,104.854,222.327z M322.264,242.696l0.415,1.167l1.21,3.409l15.973-7.074
	c-0.081-0.116-0.159-0.234-0.236-0.353c-0.769-1.214-1.305-2.572-1.572-3.986l-0.026-0.144L322.264,242.696z M339.548,235.641
	c0.886,4.282,4.967,7.807,9.406,7.793c5.2-0.017,9.925-4.893,9.512-10.28c-0.362-4.709-4.55-8.77-9.441-8.844
	c-0.117,0-0.116,0-0.233,0.001c-5.115,0.11-9.683,4.825-9.412,10.048C339.386,234.443,339.501,235.345,339.548,235.641z
	 M134.705,172.409l3.445,8.267c0.633,1.621-1.694,3.658-3.225,2.06l-9.467-10.327c-5.996,0-11.991,0.037-17.986-0.001
	c-5.07-0.097-9.615-4.414-9.716-9.716c-0.039-6.148-0.039-12.295,0-18.443c0.097-5.085,4.399-9.614,9.716-9.715
	c11.344-0.073,22.688-0.073,34.033,0c5.072,0.096,9.616,4.482,9.716,9.715c0.038,6.148,0.038,12.295,0,18.443
	c-0.097,5.075-4.483,9.616-9.716,9.716l-0.125,0.001H134.705z M125.787,170.911c0.209,0.017,0.395,0.097,0.552,0.243
	c3.237,3.532,6.245,7.287,9.713,10.593c0.305,0.266,0.877-0.078,0.708-0.509l-3.87-9.29c-0.252-0.777,0.328-1.007,0.691-1.037
	c3.683,0,7.675,0.588,10.663-0.506c3.146-1.153,5.411-4.306,5.477-7.732c0.038-6.135,0.038-12.27,0-18.405
	c-0.082-4.303-3.794-8.152-8.237-8.236c-11.294-0.073-22.59-0.001-33.885-0.001c-4.336,0.028-8.261,3.737-8.347,8.237
	c-0.039,6.135-0.039,12.27,0,18.405c0.083,4.345,3.822,8.209,8.347,8.238L125.787,170.911L125.787,170.911z M488.346,173.514h-6.9
	c-0.581-0.042-0.709-0.2-0.749-0.749v-10.473l-11.207-0.008c-0.529-0.115-0.606-0.236-0.642-0.741v-6.534
	c0.041-0.581,0.2-0.709,0.749-0.749h11.1v-4.385h-11.1c-0.582-0.041-0.71-0.2-0.749-0.749v-6.533c0.041-0.582,0.2-0.71,0.749-0.749
	h11.1l0.008-10.58c0.115-0.529,0.237-0.606,0.741-0.642h6.9c0.582,0.042,0.71,0.2,0.749,0.749v10.473h4.714V131.37
	c0.041-0.582,0.2-0.71,0.749-0.749l7.005,0.008c0.035,0.007,0.07,0.015,0.105,0.022c0.464,0.174,0.504,0.259,0.537,0.719v10.473
	l11.208,0.007c0.528,0.116,0.606,0.237,0.642,0.742v6.533c-0.042,0.582-0.2,0.71-0.749,0.749h-11.102v4.385h11.102
	c0.581,0.042,0.709,0.201,0.749,0.749v6.534c-0.042,0.582-0.2,0.71-0.749,0.749h-11.102l-0.007,10.58
	c-0.116,0.528-0.237,0.606-0.742,0.642h-6.899c-0.582-0.042-0.71-0.2-0.749-0.749v-10.473h-4.714v10.473
	C489.053,173.346,488.895,173.474,488.346,173.514z M487.597,132.119h-5.401l-0.007,10.579c-0.116,0.529-0.237,0.606-0.742,0.643
	h-11.101v5.035h11.101c0.582,0.042,0.71,0.201,0.749,0.749v5.883c-0.041,0.582-0.2,0.71-0.749,0.749h-11.101v5.036h11.101
	c0.582,0.042,0.71,0.2,0.749,0.749v10.473h5.401v-10.473c0.042-0.582,0.2-0.71,0.749-0.749h6.212c0.581,0.042,0.709,0.2,0.749,0.749
	v10.473h5.4v-10.473c0.042-0.582,0.201-0.71,0.749-0.749h11.102v-5.036h-11.102c-0.581-0.041-0.709-0.2-0.749-0.749v-5.883
	c0.042-0.581,0.201-0.709,0.749-0.749h11.102v-5.035h-11.102c-0.581-0.042-0.709-0.201-0.749-0.749v-10.473h-5.4v10.473
	c-0.042,0.581-0.201,0.709-0.749,0.749h-6.212c-0.582-0.042-0.71-0.201-0.749-0.749L487.597,132.119L487.597,132.119z
	 M494.558,155.757h-6.212c-0.582-0.041-0.71-0.2-0.749-0.749v-5.883c0.042-0.581,0.2-0.709,0.749-0.749h6.212
	c0.035,0.003,0.071,0.005,0.106,0.008c0.529,0.115,0.606,0.237,0.643,0.741v5.883C495.266,155.591,495.107,155.719,494.558,155.757z
	 M493.809,149.875h-4.714v4.385h4.714V149.875z"></path>
</svg>