<?xml version="1.0" standalone="no"?>
<svg version="1.1" id="Layer_1" xmlns="http://www.w3.org/2000/svg" xmlns:xlink="http://www.w3.org/1999/xlink" x="0px" y="0px" width="595.276px" height="595.276px" viewBox="0 0 595.276 595.276" enable-background="new 0 0 595.276 595.276" xml:space="preserve">
<path id="color_x5F_6" fill-rule="evenodd" clip-rule="evenodd" fill="#ffe0a0" d="M491.021,368.808H231.425V254.767
	l19.151,3.144l0.068,0.01c2.928,0.447,5.96-0.157,8.509-1.723l0.089-0.056c9.645-6.08,19.228-12.257,28.83-18.404l3.893-2.488
	l0.037-0.024c0.237-0.194,0.384-0.373,0.427-0.548l1.487-0.528v65.51l0,0c0.009,0.072,0.024,0.138,0.043,0.2
	c0.03,0.11,0.065,0.163,0.176,0.33l0.041,0.017c0.123,0.109,0.287,0.176,0.49,0.203h38.346c0.058-0.008,0.112-0.019,0.163-0.033
	l0.124-0.025c0,0,0.177-0.021,0.323-0.286c0.072-0.11,0.118-0.246,0.14-0.406l0,0V157.445l0,0c-0.007-0.05-0.017-0.099-0.029-0.144
	l-0.029-0.143c0,0-0.022-0.187-0.307-0.335c-0.058-0.039-0.122-0.073-0.191-0.102l-0.194-0.026h-38.346l0,0
	c-0.207,0.027-0.369,0.096-0.49,0.203l-0.041,0.017l-0.016,0.04c-0.11,0.124-0.176,0.288-0.203,0.49l0,0l-0.008,60.842
	c-0.422-0.763-1.272-1.155-2.146-1.212c-0.029-0.002-0.058-0.002-0.088-0.003c-0.032-0.001-0.064-0.003-0.096-0.003
	c-0.787,0-1.813-0.047-2.277,0.63l0,0l-7.249,12.046l-28.2,9.543l-0.008,0.002c-4.555,1.514-8.926,0.989-13.303-0.195
	c-2.231-0.707-4.472-1.422-6.717-2.141c-0.796-0.27-1.595-0.537-2.399-0.796v-124.02h259.596L491.021,368.808L491.021,368.808z
	 M411.728,343.447L411.728,343.447c0.088-0.004,0.17-0.021,0.246-0.049l0.041-0.008c0,0,0.145-0.018,0.281-0.217
	c0.108-0.128,0.173-0.293,0.182-0.476v-18.211c-0.004-0.088-0.021-0.171-0.049-0.248l-0.008-0.039l-0.013-0.014
	c-0.076-0.169-0.209-0.302-0.38-0.38l-0.013-0.012l-0.033-0.007c-0.056-0.021-0.116-0.037-0.18-0.047l-0.075-0.003
	c-6.062-0.293-12.14,0-18.209,0c-0.084,0.004-0.165,0.02-0.239,0.047l-0.048,0.01c0,0-0.152,0.018-0.29,0.23
	c-0.102,0.125-0.165,0.284-0.173,0.463l0,0v18.211l0,0c0.004,0.087,0.021,0.17,0.048,0.245l0.009,0.042c0,0,0.017,0.145,0.216,0.281
	c0.129,0.107,0.293,0.173,0.476,0.182h0.001L411.728,343.447L411.728,343.447z M361.533,343.447L361.533,343.447
	c0.084-0.004,0.165-0.021,0.239-0.048l0.048-0.009c0,0,0.152-0.019,0.29-0.23c0.101-0.126,0.165-0.284,0.173-0.463v-18.211
	c-0.004-0.088-0.021-0.171-0.049-0.248l-0.008-0.039l-0.013-0.014c-0.076-0.169-0.209-0.302-0.38-0.38l-0.013-0.012l-0.033-0.007
	c-0.056-0.021-0.117-0.037-0.18-0.047l-0.075-0.003c-6.062-0.293-12.14,0-18.21,0c-0.084,0.004-0.164,0.02-0.238,0.047l-0.049,0.01
	c0,0-0.151,0.018-0.289,0.23c-0.102,0.125-0.165,0.284-0.174,0.463l0,0v18.211l0,0c0.005,0.084,0.021,0.164,0.048,0.239l0.01,0.048
	c0,0,0.018,0.151,0.23,0.29c0.125,0.101,0.284,0.164,0.462,0.173l0,0L361.533,343.447L361.533,343.447z M314.2,342.597
	L314.2,342.597c0.088-0.004,0.17-0.021,0.246-0.048l0.041-0.009c0,0,0.145-0.017,0.282-0.217c0.107-0.128,0.172-0.293,0.181-0.476
	l0,0v-18.211c-0.004-0.088-0.021-0.171-0.049-0.248l-0.008-0.039l-0.013-0.013c-0.076-0.169-0.209-0.302-0.38-0.38l-0.013-0.012
	l-0.033-0.007c-0.056-0.022-0.117-0.038-0.18-0.047l-0.074-0.004c-6.063-0.293-12.141,0-18.211,0
	c-0.084,0.005-0.164,0.021-0.239,0.048l-0.048,0.01c0,0-0.151,0.018-0.29,0.23c-0.101,0.125-0.164,0.284-0.173,0.462l0,0l0,0v18.211
	l0,0c0.004,0.084,0.021,0.165,0.048,0.239l0.009,0.048c0,0,0.019,0.152,0.231,0.29c0.125,0.101,0.284,0.165,0.462,0.173l0,0
	L314.2,342.597L314.2,342.597z M185.355,263.745c-1.363,1.03-2.735,2.047-4.108,3.062l-0.073,5.27l-0.089,6.424l0,0
	c-0.031,0.421-0.34,0.723-0.766,0.739l0,0l-2.606-0.057l0.76,63.245h6.161L185.355,263.745L185.355,263.745z M380.666,192.044
	h-38.345c-0.382,0.043-0.677,0.103-0.75,0.75V299.66c0.069,0.615,0.348,0.704,0.75,0.75l0,0h38.345l0,0
	c0.379-0.043,0.677-0.1,0.75-0.75l0,0V192.794l0,0c-0.007-0.065-0.019-0.126-0.036-0.183l-0.021-0.104l-0.032-0.033
	c-0.075-0.151-0.193-0.268-0.35-0.35l-0.024-0.023l-0.044-0.009c-0.025-0.011-0.05-0.02-0.076-0.029L380.666,192.044
	L380.666,192.044z M431.07,221.09h-38.345c-0.556,0.055-0.689,0.122-0.75,0.75v77.82c0.054,0.554,0.119,0.687,0.75,0.75l0,0h38.345
	l0,0c0.555-0.055,0.688-0.12,0.75-0.75l0,0v-77.82l0,0c-0.044-0.453-0.208-0.594-0.457-0.687l-0.006-0.006l-0.022-0.005
	c-0.038-0.013-0.077-0.025-0.118-0.038L431.07,221.09L431.07,221.09z M185.483,249.722c-0.018,0.007-0.037,0.014-0.055,0.022
	c-0.503,0.191-1.032,0.302-1.569,0.331c-0.076,0.004-0.152,0.007-0.228,0.008l-0.102-0.001h-0.012h-0.004
	c-0.678-0.007-1.356-0.017-2.034-0.028l-0.041,2.91c0.524-0.272,0.742-0.317,1.146-0.378c0.174-0.026,0.349-0.039,0.524-0.039h0.024
	c0.836,0.007,1.667,0.311,2.317,0.855L185.483,249.722L185.483,249.722z M185.585,238.601l0.085-9.306
	c-0.016,0.02-0.033,0.041-0.05,0.061c-0.658,0.777-1.537,1.347-2.515,1.628c0,0,0.024,0.465,0.027,0.86
	c0.001,0.04,0.002,0.08,0.001,0.12l-0.001,0.063v0.005v0.006c-0.034,2.169-0.092,4.337-0.142,6.506L185.585,238.601L185.585,238.601
	z"></path>
<path id="color_x5F_5" fill-rule="evenodd" clip-rule="evenodd" fill="#FFD2BB" d="M185.579,255.933L185.579,255.933
	c-0.408-0.547-0.753-1.163-1.276-1.522l-0.021-0.014l-0.002-0.001c-0.021-0.015-0.043-0.028-0.065-0.042l-0.001-0.001l-0.015-0.008
	l-0.002-0.002l-0.014-0.008l-0.003-0.002h-0.001l-0.012-0.007l-0.005-0.003l-0.012-0.007l-0.005-0.003l-0.012-0.006l-0.006-0.003
	l-0.011-0.006l-0.006-0.003l-0.011-0.006l-0.007-0.004l-0.01-0.005l-0.008-0.004l-0.009-0.004l-0.009-0.005l-0.008-0.003
	l-0.01-0.005l-0.007-0.004l-0.006-0.003l-0.005-0.002l-0.006-0.003l-0.012-0.005h-0.001l-0.004-0.003l-0.014-0.006l-0.004-0.001
	l-0.015-0.007l-0.002-0.001c-0.671-0.286-1.484-0.202-2.09,0.236l-0.008,0.005l-0.748,0.558l0,0l-5.365,3.999l0,0
	c-0.386,0.259-0.532,0.164-0.699,0.105c-0.127-0.045-0.234-0.125-0.314-0.226c-0.198-0.205-0.272-0.52-0.072-0.871
	c0.01-0.019,0.021-0.037,0.033-0.055c0.017-0.022,0.034-0.045,0.051-0.067l0.042-0.056l0.037-0.049l0.027-0.035
	c0.327-0.425,0.681-0.838,0.976-1.261l0.026-0.039l0.026-0.038l0.026-0.039c0.217-0.326,0.395-0.66,0.494-1.013l0.004-0.016
	c0.009-0.032,0.017-0.064,0.024-0.096c0.102-0.448,0.071-0.964-0.064-1.434c-0.184-0.584-0.563-1.095-1.11-1.364
	c-0.102-0.051-0.217-0.072-0.33-0.064h-0.005h-0.004c-0.01,0.001-0.019,0.002-0.028,0.003c-0.04,0.005-0.079,0.014-0.117,0.026
	c-0.054,0.017-0.106,0.041-0.153,0.072c-0.027,0.017-0.054,0.036-0.08,0.056c-0.237,0.199-0.416,0.57-0.755,1.043
	c-0.06,0.084-0.121,0.169-0.182,0.253l-0.002,0.004c-0.047,0.065-0.095,0.13-0.142,0.195c-1.156,1.598-2.329,3.183-3.506,4.765
	l7.752,8.74l2.348-1.75c0.08-0.052,0.115-0.106,0.245-0.131c0.719-0.515,1.436-1.028,2.146-1.549
	c1.113-0.834,2.197-1.667,3.017-2.346c0.064-0.121,0.165-0.139,0.363-0.323c0.904-0.921,1.234-2.304,0.915-3.535l-0.008-0.031
	l-0.008-0.029c-0.112-0.399-0.292-0.781-0.542-1.125L185.579,255.933L185.579,255.933L185.579,255.933z M289.58,232.773l1.502,0.734
	l1.135-0.375l13.959-4.613l5.738-1.896l0.007-0.041c0.519-3.204-1.76-6.476-5.483-7.189c-3.811-0.729-7.79,0.387-11.471,2.002
	c0,0-0.014,0.004-0.039,0.008c-0.12,0.056-0.238,0.112-0.356,0.169c-0.097,0.048-0.207,0.101-0.33,0.162l-0.083,0.041
	c0,0-0.111,0.02-0.264,0.001l-0.343,0.028l-0.43-0.431c0,0-0.014-0.12-0.04-0.308c-0.019-0.062-0.036-0.129-0.049-0.201
	c-0.114-0.582-0.203-1.282-0.373-1.71c-0.043-0.105-0.089-0.193-0.137-0.255l0,0c-0.249-0.322-0.719-0.336-1.082-0.329
	c-0.424,0.016-1.005,0.153-1.005,0.153l-6.728,11.18L289.58,232.773L289.58,232.773z M185.273,219.029l-0.102,0.005l-0.006,0.001
	c-0.17,0.009-0.232,0.01-0.397,0.011l-0.016,0.001c-2.526,0.016-5.101,0.202-7.578,0.126v6.943c0.397,0.273,0.399,0.203,0.968,0.256
	c1.895,0.213,3.607,1.419,4.447,3.137c0.182-0.024,0.372-0.059,0.562-0.131l0.006-0.002c0.918-0.409,1.64-1.231,1.952-2.204
	c-0.079-0.469,0.164-1.013,0.167-1.02v-0.001v-7.122L185.273,219.029L185.273,219.029z M186.075,217.462
	c0.717-0.116,1.41-0.281,2.07-0.508c4.232-1.458,7.317-5.696,7.346-10.302v-4.785c0.074-1.038,0.751-0.649,1.62-0.851
	c3.058-0.712,3.976-5.898,0.629-7.32c-0.634-0.27-1.611-0.315-1.611-0.315c-0.526-0.118-0.602-0.238-0.638-0.741v-5.964
	c-4.151,1.72-8.81,1.847-13.347,1.32c-5.448-0.633-10.894-2.094-15.467-5.029c0,0-0.017,0.114-0.021,0.183
	c-0.274,4.883-0.084,10.133-1.764,14.301c-0.345,0.855-1.64,1.672-2.568,0.324c-0.755-1.097-0.934-2.535-1.1-3.912
	c-2.842,1.55-2.363,6.941,1.608,7.246c0,0,0.644,0.102,0.693,0.748c0,2.545-0.086,5.095,0.764,7.419
	c1.74,4.751,6.501,8.172,11.679,8.271c0.13,0.001,0.261,0.002,0.392,0.004l0.005-0.001l0.058-0.002h0.003
	c0.973-0.036,1.951-0.024,2.928,0h5.241c0.218-0.002,0.444-0.008,0.654-0.015c0.231-0.019,0.461-0.042,0.691-0.068
	c0.06-0.005,0.06-0.005,0.12-0.004L186.075,217.462L186.075,217.462z"></path>
<path id="color_x5F_4" fill-rule="evenodd" clip-rule="evenodd" fill="#fd6274" d="M360.783,341.947h-16.711v-16.711h16.711
	V341.947L360.783,341.947z M410.978,341.947h-16.71v-16.711h16.71V341.947L410.978,341.947z M313.45,341.097h-16.711v-16.711h16.711
	V341.097L313.45,341.097z M332.262,298.91h-36.846v-65.255l11.23-3.711l6.149-2.032c0.415-0.167,0.493-0.53,0.496-0.543l0.014-0.057
	l0.007-0.03l0.007-0.033c0.417-1.799,0.215-3.774-0.674-5.419c-0.79-1.461-2.152-2.565-3.688-3.228
	c-4.258-1.838-9.142-0.83-13.541,0.971v-61.378h36.846L332.262,298.91L332.262,298.91z M430.32,298.91h-36.845v-76.32h36.845V298.91
	L430.32,298.91z M379.916,298.91h-36.845V193.544h36.845V298.91L379.916,298.91z M116.981,231.265l5.437,6.595l0.821-0.677
	l-5.437-6.595C117.529,230.814,117.255,231.039,116.981,231.265L116.981,231.265z M104.112,235.342l0.676,0.821l6.596-5.437
	l-0.677-0.821C108.509,231.717,106.31,233.53,104.112,235.342L104.112,235.342z M202.517,226.34c1.01,0.023,2.015,0.146,3,0.37
	l0.06,0.014c0-13.517,0.127-27.035-0.002-40.552c-0.196-12.386-11.118-23.698-24.214-23.68c-8.602,0.011-17.068,4.208-22.262,11.047
	c-3.658,4.817-5.672,10.815-5.691,16.905v41.487c0.092-0.103,0.185-0.205,0.279-0.307c0.492-0.522,1.016-1.01,1.569-1.462
	c0.274-0.236,0.561-0.463,0.863-0.681c2.773-2,6.147-3.096,9.603-3.143l0.046-0.001h0.029h0.053h9.824v-7.246
	c-1.526-0.126-3.002-0.39-4.393-0.899c-5.374-1.968-9.219-7.385-9.256-13.248v-2.431c-0.807-0.162-0.837-0.227-1.15-0.368
	c-3.12-1.407-4.119-6.132-1.609-8.665c1.117-1.128,3.146-2.085,3.356-0.743c0.118,1.437,0.245,3.017,0.886,4.107
	c0,0,0.711-2.92,0.993-5.444c0.359-3.221,0.57-6.457,0.727-9.694c0,0-0.005-0.926,0.835-0.901c0.447,0.08-0.096-0.144,1.071,0.664
	c5.766,3.919,13.13,5.493,20.246,5.309c2.933-0.076,5.899-0.634,8.527-1.944c0,0,1.027-0.115,1.084,0.671v6.439
	c0.228,0.032,0.33,0.057,0.33,0.057c3.483,0.765,5.407,5.368,3.286,8.354c-0.827,1.164-2.125,1.959-3.55,2.198l-0.066,0.01
	c0,1.415,0.008,2.83-0.001,4.245c-0.016,0.859-0.046,1.033-0.113,1.526c-0.699,5.11-4.887,9.485-10.076,10.495
	c0.101,2.505,0.192,5.028-0.02,7.508c5.155-0.002,10.311-0.029,15.467,0h0.143l0.013,0.001h0.016
	C202.452,226.338,202.484,226.339,202.517,226.34L202.517,226.34z M117.664,224.17l0.677,0.82l6.595-5.436l-0.677-0.821
	C122.061,220.545,119.863,222.357,117.664,224.17L117.664,224.17z M105.809,217.712l5.437,6.595l0.821-0.676l-5.437-6.595
	C106.356,217.261,106.083,217.487,105.809,217.712L105.809,217.712z M131.388,154.037l5.437,6.595l0.82-0.677l-5.437-6.595
	C131.935,153.586,131.661,153.811,131.388,154.037L131.388,154.037z M118.518,158.114l0.677,0.821l6.595-5.437l-0.677-0.821
	C122.915,154.489,120.717,156.302,118.518,158.114L118.518,158.114z M132.071,146.942l0.676,0.82l6.595-5.436l-0.676-0.821
	C136.468,143.317,134.269,145.129,132.071,146.942L132.071,146.942z M120.215,140.484l5.437,6.595l0.821-0.676l-5.437-6.595
	C120.763,140.033,120.489,140.259,120.215,140.484L120.215,140.484z M196.19,133.552l5.437,6.595l0.821-0.677l-5.437-6.595
	C196.738,133.101,196.464,133.326,196.19,133.552L196.19,133.552z M183.321,137.629l0.677,0.821l6.595-5.437l-0.677-0.821
	C187.718,134.004,185.519,135.817,183.321,137.629L183.321,137.629z M196.873,126.457l0.677,0.82l6.595-5.436l-0.676-0.821
	C201.27,122.832,199.072,124.644,196.873,126.457L196.873,126.457z M185.018,119.999l5.437,6.595l0.821-0.676l-5.437-6.595
	C185.565,119.548,185.292,119.774,185.018,119.999L185.018,119.999z"></path>
<path id="color_x5F_3" fill-rule="evenodd" clip-rule="evenodd" fill="#ff8383" d="M193.472,472.48l-2.888-0.118
	c0.057,0.071,0.114,0.142,0.171,0.213c3.444,4.266,7.13,8.902,12.006,10.67c1.636,0.593,4.52,0.808,4.244-1.724
	c-0.168-1.538-0.943-2.974-1.725-4.369c-0.742-1.324-1.576-2.593-2.446-3.834l-0.332-0.467L193.472,472.48L193.472,472.48z
	 M167.23,473.07c3.539,3.837,7.368,7.739,11.889,9.774c1.616,0.728,3.584,1.228,5.033,0.17c1.446-1.054-0.068-3.893-1.42-6.233
	c-0.837-1.448-1.775-2.835-2.754-4.19c0,0,0.008-0.068-0.116-0.043l-0.049,0.002c-0.008,0.001-0.018,0.003-0.027,0.004
	L167.23,473.07L167.23,473.07z M202.249,227.837h0.003c0.653,0.004,1.305,0.056,1.949,0.155c0.741,0.145,1.467,0.432,2.006,0.472
	c0.846,0.27,1.663,0.628,2.434,1.07c0.872,0.5,1.585,1.296,2.327,1.62l30.022,9.656l0.143,0.045c0.286,0.088,0.574,0.17,0.864,0.246
	c3.933,1.035,8.106,0.939,11.982-0.277l0.149-0.047l0.593-0.198c6.947-2.315,13.877-4.679,20.809-7.036l1.584-0.539l1.986-0.675
	l2.114-0.716l1.429-0.485l7.42,3.557l-31.594,20.171l-0.011,0.007l-0.201,0.124l-0.028,0.016l-0.188,0.109l-0.026,0.015
	l-0.193,0.106l-0.02,0.011l-0.201,0.105l-0.013,0.007l-0.212,0.104l-0.004,0.002c-2.022,0.971-4.328,1.319-6.55,0.969l-0.027-0.004
	l-34.809-5.714c-0.634-0.032-0.836,0.059-0.87,0.789l5.785,87.887c0.062,1.188-0.635,2.339-1.708,2.804
	c-0.337,0.146-0.523,0.214-1.059,0.234c-10.666,0.138-21.333,0.001-32,0.001l0.732-79.88c0.177-0.178,0.339-0.367,0.485-0.566
	c0.545-0.72,0.904-1.574,1.012-2.471c0.041-0.34,0.037-0.675-0.005-1.005c-0.044-0.703-0.23-1.395-0.565-2.019
	c-0.105-0.197-0.107-0.227-0.403-0.634l-0.457-0.614l0.059-6.473c0.976-0.912,1.554-2.199,1.6-3.54l0.128-5.805
	c-0.002-0.039-0.006-0.076-0.012-0.11c-0.039-0.327-0.137-0.578-0.722-0.657l0,0l-0.901-0.02l0.099-10.797H202.249L202.249,227.837z
	 M176.973,342.428H147.31c-1.147-0.015-2.203-0.806-2.511-1.897c-0.096-0.341-0.136-0.528-0.075-1.044
	c1.809-12.503,3.959-24.955,5.939-37.432c7.111-8.02,14.171-16.085,21.242-24.14c-0.002,0.075-0.01,0.249-0.005,0.395v0.001l0,0
	c0.002,0.064,0.007,0.123,0.016,0.166c0.068,0.32,0.028,0.48,0.598,0.576c0.038,0.008,0.078,0.014,0.119,0.018l0,0l3.579,0.079
	l0.761,63.273V342.428L176.973,342.428z M167.546,258.401l-39.041,39.018l-0.075,0.079c-0.092,0.097-0.179,0.183-0.261,0.258
	l-0.472,0.472c-2.613,2.647-2.138,7.418,1.452,9.627c5.116,3.149,12.353,2.237,16.562-2.486l31.651-35.935v-0.001l-0.021-0.023
	l-0.142-0.16l-0.158-0.178l0,0l-8.386-9.455l-0.227-0.256l0,0l-0.866-0.976L167.546,258.401L167.546,258.401z M173.787,227.837
	c-0.717,0.676-1.253,1.533-1.533,2.472c-0.124,0.416-0.182,0.606-0.22,1.258c-0.002,0.022-0.003,0.045-0.004,0.068l-0.001,0.016
	l-0.001,0.009v0.015c-0.091,2.206-0.183,4.415-0.171,6.623l-1.927-0.042l-3.958-0.088c-0.071,0.003-0.138,0.013-0.202,0.03
	c-0.371,0.081-0.485,0.278-0.539,0.551c-0.013,0.049-0.021,0.1-0.025,0.153l0,0v0.006c-0.043,1.943-0.108,3.886-0.129,5.829v0.008
	v0.024l-0.001,0.099c0.007,0.405,0.066,0.801,0.17,1.181c0.564,2.07,2.469,3.643,4.62,3.731c0.01,0.001,0.02,0.001,0.03,0.002
	c0.799,0.017,1.599,0.036,2.398,0.056l-0.044,3.143c-0.592,0.824-1.163,1.769-1.758,2.592l-0.042,0.058l-0.111,0.15
	c-0.464,0.614-1.038,1.244-1.463,1.824l-0.72-0.811c-0.022-0.022-0.045-0.042-0.069-0.061c-0.245-0.209-0.488-0.34-0.912-0.052
	c-0.038,0.023-0.075,0.05-0.11,0.08l-37.483,37.462l21.268-54.045c1.096-2.502,2.071-5.123,3.733-7.258
	c0.095-0.123,0.192-0.242,0.291-0.36c1.931-2.02,4.408-3.506,7.109-4.221c0.473-0.124,0.957-0.228,1.451-0.312
	c0.802-0.122,1.612-0.185,2.421-0.19L173.787,227.837L173.787,227.837z M187.203,240.137l-0.891-0.019l0,0l-4.106-0.091l0,0h-0.001
	c-3.203,0.052-6.405-0.141-9.607-0.212l0,0l-2.701-0.06l-3.208-0.07l-0.112,5.084c-0.011,1.232,0.685,2.377,1.707,3.008
	c0.491,0.3,1.056,0.483,1.65,0.505h0.008l3.129,0.069l0,0l7.685,0.17c0.057,0.005,0.112,0.014,0.164,0.029h0.033
	c0.491-0.057,1.113-0.007,1.739,0.023c0.312,0.004,0.624,0.007,0.936,0.01c1.765-0.024,3.34-1.509,3.459-3.295l0.006-0.104
	L187.203,240.137L187.203,240.137L187.203,240.137z"></path>
<path id="color_x5F_2" fill-rule="evenodd" clip-rule="evenodd" fill="#FBC02D" d="M179.017,470.962l1.706-126.854
	l-28.011-0.059c3.662,42.555,7.324,85.11,10.986,127.665l1.867-0.077h0.001L179.017,470.962L179.017,470.962z M201.88,471.324
	l10.863-127.268l-27.903-0.11c0.575,42.25,1.149,84.5,1.724,126.75l6.97,0.286L201.88,471.324L201.88,471.324z M179.731,267.928
	c-0.342,0.253-0.684,0.506-1.025,0.76c0.006,0.006,0.071,0.067,0.146,0.166l0.072,0.08c0.304,0.405,0.313,0.551,0.083,0.882
	c-0.022,0.038-0.049,0.075-0.081,0.111v0.001l-0.009,0.009c-1.831,2.079-3.66,4.16-5.488,6.242l-0.019,1.409l6.186,0.136
	l0.078-5.668L179.731,267.928L179.731,267.928z M173.793,249.877l-0.019,1.39c0.055-0.037,0.111-0.07,0.168-0.102
	c0.192-0.102,0.39-0.168,0.591-0.2c0.158-0.043,0.319-0.064,0.485-0.063c1.849,0.06,3.268,2.392,2.915,4.507v0.001l-0.001,0.003
	l-0.002,0.017l-0.002,0.007l-0.001,0.005l-0.001,0.006l-0.001,0.007l-0.002,0.011l-0.001,0.008l-0.001,0.004v0.002l-0.004,0.016
	l-0.001,0.009l0.708-0.516c0.44-0.351,0.873-0.706,1.301-1.033l0.054-3.93C177.918,249.985,175.856,249.93,173.793,249.877
	L173.793,249.877z M177.69,227.845c-0.066-0.002-0.126-0.002-0.186-0.002c-1.89,0.042-3.581,1.549-3.92,3.399
	c-0.033,0.188-0.053,0.38-0.06,0.572l-0.07,3.186l-0.073,3.332l8.109,0.179c0.011-0.523,0.025-1.046,0.039-1.569
	c0.043-1.674,0.086-3.348,0.105-5.022v-0.009c-0.001-0.094-0.006-0.185-0.012-0.274c-0.129-1.614-1.296-3.06-2.814-3.585
	C178.45,227.932,178.074,227.86,177.69,227.845L177.69,227.845z"></path>
<path id="color_x5F_1" fill-rule="evenodd" clip-rule="evenodd" fill="#fc2b47" d="M229.925,235.727V111.388l0.22-0.53
	l0.53-0.22h261.096l0.53,0.22l0.22,0.53v258.17c-0.13,0.653-0.463,0.693-0.463,0.693l-0.287,0.057H230.675
	c-0.974-0.194-0.75-0.75-0.75-0.75V254.521l-13.251-2.175l5.724,86.955c0.024,0.443,0.01,0.468-0.008,0.666
	c-0.189,2.128-2.114,3.933-4.325,3.961h-3.806l-10.888,127.566c2.26,3.082,4.69,6.436,5.113,9.765c0.21,1.65-0.834,3.341-2.89,3.756
	c-3.447,0.698-6.75-1.914-9.804-4.734c-2.631-2.429-4.977-5.161-7.178-8l-2.819-0.116c-0.413-0.07-0.659-0.309-0.719-0.739
	l-1.734-127.498h-1.115L180.519,470.8c2.174,2.889,4.361,5.919,5.358,9.236c0.575,1.912,0.277,4.24-2.408,4.929
	c-3.396,0.87-6.936-1.503-10.219-4.122c-2.89-2.306-5.499-4.947-7.976-7.693l-2.231,0.092c-0.419-0.036-0.685-0.258-0.778-0.685
	l-11.069-128.629H147.3c-2.362-0.032-4.407-2.263-4.048-4.741l5.562-35.048c-0.697,0.784-1.395,1.569-2.094,2.352
	c-4.834,5.298-13.715,6.522-19.494,1.856c-3.239-2.616-3.72-8.009-0.593-11.177l0.292-0.292l22.538-57.277
	c0.097-0.186,0.144-0.289,0.029-0.061c0.808-1.844,1.595-3.76,2.642-5.533c-0.153-0.107-0.197-0.29-0.226-0.615
	c0-14.377-0.043-28.755,0.001-43.132c0.14-14.997,12.794-28.914,28.902-29.263c0.314-0.005,0.627-0.006,0.94-0.005
	c7.121,0.068,14.093,3.216,18.806,8.464c4.15,4.621,6.5,10.759,6.52,17.025v40.709c1.632,0.583,3.16,1.455,4.495,2.582
	C217.928,231.877,223.939,233.818,229.925,235.727L229.925,235.727z M193.472,472.48l-2.888-0.118
	c0.057,0.071,0.114,0.142,0.171,0.213c3.444,4.266,7.13,8.902,12.006,10.67c1.636,0.593,4.52,0.808,4.244-1.724
	c-0.168-1.538-0.943-2.974-1.725-4.369c-0.742-1.324-1.576-2.593-2.446-3.834l-0.332-0.467L193.472,472.48L193.472,472.48z
	 M167.23,473.07c3.539,3.837,7.368,7.739,11.889,9.774c1.616,0.728,3.584,1.228,5.033,0.17c1.446-1.054-0.068-3.893-1.42-6.233
	c-0.837-1.448-1.775-2.835-2.754-4.19c0,0,0.008-0.068-0.116-0.043l-0.049,0.002c-0.008,0.001-0.018,0.003-0.027,0.004
	L167.23,473.07L167.23,473.07z M179.017,470.962l1.706-126.854l-28.011-0.059c3.662,42.555,7.324,85.11,10.986,127.665l1.867-0.077
	h0.001L179.017,470.962L179.017,470.962z M201.88,471.324l10.863-127.268l-27.903-0.11c0.575,42.25,1.149,84.5,1.724,126.75
	l6.97,0.286L201.88,471.324L201.88,471.324z M231.425,254.767v114.041h259.596v-256.67H231.425v124.02
	c1.031,0.332,2.055,0.679,3.074,1.024c2.001,0.635,4.007,1.27,6.031,1.91c4.378,1.185,8.75,1.712,13.306,0.201l0.016-0.005
	l28.2-9.543l7.249-12.046l0,0c0.464-0.677,1.49-0.63,2.277-0.63c0.032,0,0.064,0.002,0.096,0.003
	c0.03,0.001,0.059,0.001,0.088,0.003c0.874,0.057,1.724,0.449,2.146,1.212l0.008-60.842l0,0c0.027-0.202,0.093-0.366,0.203-0.49
	l0.016-0.04l0.041-0.017c0.121-0.107,0.283-0.176,0.49-0.203l0,0h38.346l0,0l0.194,0.026c0.069,0.029,0.133,0.063,0.191,0.102
	c0.285,0.148,0.307,0.335,0.307,0.335l0.029,0.143c0.012,0.045,0.022,0.094,0.029,0.144l0,0V299.66l0,0
	c-0.022,0.16-0.068,0.296-0.14,0.406c-0.146,0.265-0.323,0.286-0.323,0.286l-0.124,0.025c-0.051,0.014-0.106,0.025-0.163,0.033
	h-38.346c-0.203-0.027-0.367-0.094-0.49-0.203l-0.041-0.017c-0.111-0.167-0.146-0.22-0.176-0.33c-0.019-0.062-0.034-0.128-0.043-0.2
	l0,0v-65.51l-1.487,0.528c-0.043,0.175-0.19,0.354-0.427,0.548c-10.923,6.974-21.806,14.01-32.768,20.921l-0.081,0.051
	c-2.545,1.564-5.572,2.169-8.497,1.725c-0.027-0.004-0.053-0.008-0.08-0.012L231.425,254.767L231.425,254.767z M343.084,323.783
	c0.074-0.027,0.154-0.043,0.238-0.047c6.07,0,12.148-0.293,18.21,0h0.001h0.001l0.073,0.003c0.063,0.01,0.124,0.026,0.18,0.047
	l0.033,0.007l0.013,0.012c0.171,0.078,0.304,0.211,0.38,0.38l0.013,0.014l0.008,0.039c0.028,0.077,0.045,0.16,0.049,0.248v18.211
	c-0.008,0.179-0.072,0.337-0.173,0.463c-0.138,0.211-0.29,0.23-0.29,0.23l-0.048,0.009c-0.074,0.027-0.155,0.044-0.239,0.048l0,0
	h-18.211l0,0c-0.178-0.009-0.337-0.072-0.462-0.173c-0.212-0.139-0.23-0.29-0.23-0.29l-0.01-0.048
	c-0.027-0.075-0.043-0.155-0.048-0.239l0,0v-18.211l0,0c0.009-0.179,0.072-0.338,0.174-0.463c0.138-0.212,0.289-0.23,0.289-0.23
	L343.084,323.783L343.084,323.783z M393.279,323.783c0.074-0.027,0.155-0.043,0.239-0.047c6.069,0,12.147-0.293,18.209,0h0.001
	h0.001l0.073,0.003c0.064,0.01,0.124,0.026,0.18,0.047l0.033,0.007l0.013,0.012c0.171,0.078,0.304,0.211,0.38,0.38l0.013,0.014
	l0.008,0.039c0.028,0.077,0.045,0.16,0.049,0.248v18.211c-0.009,0.183-0.074,0.348-0.182,0.476
	c-0.136,0.199-0.281,0.217-0.281,0.217l-0.041,0.008c-0.076,0.028-0.158,0.045-0.245,0.049h-0.001h-18.21h-0.001
	c-0.183-0.009-0.347-0.075-0.476-0.182c-0.199-0.136-0.216-0.281-0.216-0.281l-0.009-0.042c-0.027-0.075-0.044-0.158-0.048-0.245
	l0,0v-18.211l0,0c0.008-0.179,0.071-0.338,0.173-0.463c0.138-0.212,0.29-0.23,0.29-0.23L393.279,323.783L393.279,323.783z
	 M295.75,322.934c0.075-0.027,0.155-0.043,0.239-0.048c6.07,0,12.148-0.293,18.211,0l0,0l0,0l0.074,0.004
	c0.063,0.009,0.124,0.025,0.18,0.047l0.033,0.007l0.013,0.012c0.171,0.078,0.304,0.211,0.38,0.38l0.013,0.013l0.008,0.039
	c0.028,0.077,0.045,0.16,0.049,0.248v18.211l0,0l0,0l0,0c-0.009,0.183-0.074,0.348-0.181,0.476c-0.137,0.2-0.282,0.217-0.282,0.217
	l-0.041,0.009c-0.076,0.027-0.158,0.044-0.246,0.048l0,0h-18.211l0,0c-0.178-0.008-0.337-0.072-0.462-0.173
	c-0.212-0.138-0.231-0.29-0.231-0.29l-0.009-0.048c-0.027-0.074-0.044-0.155-0.048-0.239l0,0v-18.211l0,0
	c0.009-0.178,0.072-0.337,0.173-0.462c0.139-0.212,0.29-0.23,0.29-0.23L295.75,322.934L295.75,322.934z M202.255,227.837h-0.006
	h-15.065l-0.099,10.797l0.901,0.02l0,0c0.587,0.08,0.684,0.332,0.723,0.66c0.006,0.034,0.009,0.069,0.011,0.107l-0.004,0.158
	l-0.124,5.647c-0.046,1.341-0.624,2.628-1.6,3.54l-0.059,6.473l0.457,0.614c0.296,0.407,0.298,0.437,0.403,0.634
	c0.334,0.623,0.52,1.313,0.565,2.015c0.042,0.332,0.046,0.668,0.005,1.009c-0.109,0.897-0.467,1.752-1.013,2.473
	c-0.146,0.199-0.308,0.387-0.484,0.564l-0.732,79.88c10.666,0,21.334,0.137,32-0.001c0.536-0.02,0.722-0.088,1.059-0.234
	c1.073-0.465,1.77-1.616,1.708-2.804l-5.785-87.887c0.034-0.73,0.236-0.821,0.87-0.789l34.818,5.715l0.027,0.004
	c2.611,0.409,5.338-0.145,7.583-1.541l0.055-0.035l31.594-20.171l-7.42-3.557c-1.265,0.428-2.531,0.858-3.796,1.287
	c-8.097,2.75-16.188,5.52-24.302,8.223l-0.417,0.139c-0.044,0.014-0.088,0.028-0.132,0.041c-3.889,1.224-8.079,1.32-12.026,0.276
	c-0.281-0.074-0.561-0.154-0.839-0.24c-0.047-0.014-0.094-0.029-0.141-0.044l-30.022-9.656c-0.742-0.324-1.455-1.12-2.327-1.62
	c-0.77-0.442-1.587-0.799-2.432-1.07c-0.539-0.04-1.266-0.327-2.007-0.472C203.559,227.893,202.908,227.841,202.255,227.837
	L202.255,227.837z M171.905,277.915c-7.071,8.055-14.131,16.12-21.242,24.14c-1.98,12.477-4.13,24.929-5.939,37.432
	c-0.061,0.516-0.021,0.703,0.075,1.044c0.308,1.091,1.364,1.882,2.511,1.897h29.663v-0.005l-0.761-63.273l-3.579-0.079l0,0
	c-0.041-0.004-0.081-0.01-0.119-0.018c-0.57-0.096-0.53-0.256-0.598-0.576c-0.009-0.043-0.014-0.102-0.016-0.166l0,0v-0.001
	C171.895,278.164,171.903,277.99,171.905,277.915L171.905,277.915z M185.355,263.745c-1.363,1.03-2.735,2.047-4.108,3.062
	l-0.073,5.27l-0.089,6.424l0,0c-0.031,0.421-0.34,0.723-0.766,0.739l0,0l-2.606-0.057l0.76,63.245h6.161L185.355,263.745
	L185.355,263.745z M410.978,341.947v-16.711h-16.71v16.711H410.978L410.978,341.947z M360.783,341.947v-16.711h-16.711v16.711
	H360.783L360.783,341.947z M313.45,341.097v-16.711h-16.711v16.711H313.45L313.45,341.097z M167.546,258.401l-39.041,39.018
	l-0.075,0.079c-0.092,0.097-0.179,0.183-0.261,0.258l-0.472,0.472c-2.613,2.647-2.138,7.418,1.452,9.627
	c5.116,3.149,12.353,2.237,16.562-2.486l31.651-35.935v-0.001l-0.021-0.023l-0.142-0.16l-0.158-0.178l0,0l-8.386-9.455l-0.227-0.256
	l0,0l-0.866-0.976L167.546,258.401L167.546,258.401z M342.321,300.41c-0.402-0.046-0.681-0.135-0.75-0.75V192.794
	c0.073-0.651,0.371-0.708,0.75-0.75h38.345c0.056,0.006,0.112,0.012,0.167,0.019c0.026,0.009,0.051,0.018,0.076,0.029l0.044,0.009
	l0.024,0.023c0.157,0.082,0.275,0.199,0.35,0.35l0.032,0.033l0.021,0.104c0.017,0.057,0.029,0.118,0.036,0.183l0,0V299.66l0,0
	c-0.073,0.65-0.371,0.707-0.75,0.75l0,0H342.321L342.321,300.41L342.321,300.41z M392.725,300.41L392.725,300.41
	c-0.631-0.063-0.696-0.196-0.75-0.75v-77.82c0.062-0.631,0.195-0.696,0.75-0.75h38.345c0.049,0.005,0.098,0.009,0.147,0.014
	c0.041,0.013,0.08,0.025,0.118,0.038l0.022,0.005l0.006,0.006c0.249,0.093,0.413,0.234,0.457,0.687l0,0v77.82l0,0
	c-0.062,0.63-0.195,0.695-0.75,0.75l0,0H392.725L392.725,300.41L392.725,300.41z M295.416,298.91h36.846V158.195h-36.846v61.378
	c4.399-1.801,9.283-2.809,13.541-0.971c1.536,0.663,2.898,1.767,3.688,3.228c0.889,1.645,1.091,3.62,0.674,5.419l-0.001,0.007
	l-0.002,0.01l-0.004,0.016l-0.004,0.017l-0.003,0.013l-0.002,0.008l-0.002,0.005l-0.007,0.03l-0.003,0.014l0,0
	c-0.003,0.013-0.081,0.376-0.496,0.543l-6.149,2.032l-11.23,3.711L295.416,298.91L295.416,298.91z M430.32,222.59h-36.845v76.32
	h36.845V222.59L430.32,222.59z M379.916,193.544h-36.845V298.91h36.845V193.544L379.916,193.544z M172.034,231.567
	c0.038-0.652,0.096-0.842,0.22-1.258c0.28-0.94,0.817-1.797,1.533-2.472c-2.644,0-5.288,0-7.932,0
	c-0.808,0.005-1.619,0.068-2.421,0.19c-0.494,0.084-0.978,0.188-1.451,0.312c-2.701,0.715-5.178,2.201-7.109,4.221
	c-0.099,0.118-0.196,0.237-0.291,0.36c-1.662,2.135-2.637,4.756-3.733,7.258l-21.268,54.045l37.483-37.462
	c0.035-0.03,0.072-0.057,0.11-0.08c0.424-0.288,0.667-0.157,0.912,0.052c0.024,0.019,0.047,0.039,0.069,0.061l0.72,0.811
	c0.425-0.58,0.999-1.21,1.463-1.824l0.111-0.15l0.042-0.058c0.595-0.823,1.166-1.768,1.758-2.592l0.044-3.143
	c-0.799-0.02-1.599-0.039-2.398-0.056c-0.01-0.001-0.02-0.001-0.03-0.002c-2.151-0.088-4.056-1.661-4.62-3.731
	c-0.104-0.38-0.163-0.776-0.17-1.181l0.001-0.099v-0.024v-0.008c0.021-1.943,0.086-3.886,0.129-5.829v-0.006
	c0.004-0.053,0.012-0.104,0.025-0.153c0.054-0.273,0.168-0.47,0.539-0.551c0.064-0.017,0.131-0.027,0.202-0.03l3.958,0.088
	l1.927,0.042c-0.012-2.208,0.08-4.417,0.171-6.623v-0.015l0.001-0.009l0.001-0.016C172.031,231.612,172.032,231.589,172.034,231.567
	L172.034,231.567z M179.731,267.928c-0.342,0.253-0.684,0.506-1.025,0.76c0.006,0.006,0.071,0.067,0.146,0.166l0.072,0.08
	c0.304,0.405,0.313,0.551,0.083,0.882c-0.022,0.038-0.049,0.075-0.081,0.111v0.001l-0.009,0.009c-1.831,2.079-3.66,4.16-5.488,6.242
	l-0.019,1.409l3.468,0.076l0.092,0.002l0,0l0.138,0.003l2.488,0.055l0.078-5.668L179.731,267.928L179.731,267.928z M176.368,253.832
	c-0.184-0.584-0.563-1.095-1.11-1.364c-0.102-0.051-0.217-0.072-0.33-0.064h-0.005h-0.004c-0.01,0.001-0.019,0.002-0.028,0.003
	c-0.04,0.005-0.079,0.014-0.117,0.026c-0.054,0.017-0.106,0.041-0.153,0.072c-0.027,0.017-0.054,0.036-0.08,0.056
	c-0.237,0.199-0.416,0.57-0.755,1.043c-0.06,0.084-0.121,0.169-0.182,0.253l-0.002,0.004c-0.047,0.065-0.095,0.13-0.142,0.195
	c-1.156,1.598-2.329,3.183-3.506,4.765l7.752,8.74l2.348-1.75c0.08-0.052,0.115-0.106,0.245-0.131
	c0.719-0.515,1.436-1.028,2.146-1.549c1.113-0.833,2.196-1.666,3.016-2.344c0.063-0.122,0.164-0.14,0.361-0.322
	c0.911-0.927,1.242-2.323,0.912-3.562c-0.111-0.412-0.295-0.807-0.552-1.161l-0.603-0.809l0,0l0,0
	c-0.408-0.547-0.753-1.163-1.276-1.522l-0.021-0.014l-0.002-0.001c-0.021-0.015-0.043-0.028-0.065-0.042l-0.001-0.001l-0.015-0.008
	l-0.002-0.002l-0.014-0.008l-0.003-0.002h-0.001l-0.012-0.007l-0.005-0.003l-0.012-0.007l-0.005-0.003l-0.012-0.006l-0.006-0.003
	l-0.011-0.006l-0.006-0.003l-0.011-0.006l-0.007-0.004l-0.01-0.005l-0.008-0.004l-0.009-0.004l-0.009-0.005l-0.008-0.003
	l-0.01-0.005l-0.007-0.004l-0.006-0.003l-0.005-0.002l-0.006-0.003l-0.012-0.005h-0.001l-0.004-0.003l-0.014-0.006l-0.004-0.001
	l-0.015-0.007l-0.002-0.001c-0.671-0.286-1.484-0.202-2.09,0.236l-0.008,0.005l-0.748,0.558l0,0l-5.365,3.999l0,0
	c-0.386,0.259-0.532,0.164-0.699,0.105c-0.127-0.045-0.234-0.125-0.314-0.226c-0.198-0.205-0.272-0.52-0.072-0.871
	c0.01-0.019,0.021-0.037,0.033-0.055c0.017-0.022,0.034-0.045,0.051-0.067l0.042-0.056l0.037-0.049l0.027-0.035
	c0.327-0.425,0.681-0.838,0.976-1.261l0.026-0.039l0.026-0.038l0.026-0.039c0.217-0.326,0.395-0.66,0.494-1.013l0.004-0.016
	c0.009-0.032,0.017-0.064,0.024-0.096C176.534,254.818,176.503,254.302,176.368,253.832L176.368,253.832z M173.793,249.877
	l-0.019,1.39c0.055-0.037,0.111-0.07,0.168-0.102c0.192-0.102,0.39-0.168,0.591-0.2c0.158-0.043,0.319-0.064,0.485-0.063
	c1.849,0.06,3.268,2.392,2.915,4.507v0.001l-0.001,0.003l-0.002,0.017l-0.002,0.007l-0.001,0.005l-0.001,0.006l-0.001,0.007
	l-0.002,0.011l-0.001,0.008l-0.001,0.004v0.002l-0.004,0.016l-0.001,0.009l0.708-0.516c0.44-0.351,0.873-0.706,1.301-1.033
	l0.054-3.93C177.918,249.985,175.856,249.93,173.793,249.877L173.793,249.877z M185.483,249.722
	c-0.018,0.007-0.037,0.014-0.055,0.022c-0.503,0.191-1.032,0.302-1.569,0.331c-0.076,0.004-0.152,0.007-0.228,0.008l-0.102-0.001
	h-0.012h-0.004c-0.678-0.007-1.356-0.017-2.034-0.028l-0.041,2.91c0.524-0.272,0.742-0.317,1.146-0.378
	c0.174-0.026,0.349-0.039,0.524-0.039h0.024c0.836,0.007,1.667,0.311,2.317,0.855L185.483,249.722L185.483,249.722z
	 M166.689,239.685l-0.112,5.084c-0.011,1.232,0.685,2.377,1.707,3.008c0.491,0.3,1.056,0.483,1.65,0.505h0.008l3.129,0.069l0,0
	l7.685,0.17c0.057,0.005,0.112,0.014,0.164,0.029h0.033c0.491-0.057,1.113-0.007,1.739,0.023c0.312,0.004,0.624,0.007,0.936,0.01
	c1.791-0.024,3.387-1.553,3.464-3.374l0.001-0.025l0.11-5.047l0,0l-0.891-0.019l0,0l-4.106-0.091l0,0h-0.001
	c-3.203,0.052-6.405-0.141-9.607-0.212l0,0l-2.701-0.06L166.689,239.685L166.689,239.685z M117.884,229.045
	c0.368,0.027,0.705,0.186,0.96,0.451c1.932,2.227,3.752,4.549,5.628,6.825c0.441,0.564,0.382,1.401-0.141,1.904
	c-0.955,0.828-2.123,1.593-2.955,0.727c-1.933-2.227-3.752-4.549-5.627-6.825c-0.44-0.561-0.383-1.401,0.14-1.904
	C116.526,229.671,116.945,229.022,117.884,229.045L117.884,229.045z M185.585,238.601l0.085-9.306
	c-0.016,0.02-0.033,0.041-0.05,0.061c-0.658,0.777-1.537,1.347-2.515,1.628c0,0,0.024,0.465,0.027,0.86
	c0.001,0.04,0.002,0.08,0.001,0.12l-0.001,0.063v0.005v0.006c-0.034,2.169-0.092,4.337-0.142,6.506L185.585,238.601L185.585,238.601
	z M177.69,227.845c-0.066-0.002-0.126-0.002-0.186-0.002c-1.89,0.042-3.581,1.549-3.92,3.399c-0.033,0.188-0.053,0.38-0.06,0.572
	l-0.07,3.186l-0.073,3.332l8.109,0.179c0.011-0.523,0.025-1.046,0.039-1.569c0.043-1.674,0.086-3.348,0.105-5.022v-0.009
	c-0.001-0.094-0.006-0.185-0.012-0.274c-0.129-1.614-1.296-3.06-2.814-3.585C178.45,227.932,178.074,227.86,177.69,227.845
	L177.69,227.845z M116.981,231.265l5.437,6.595l0.821-0.677l-5.437-6.595C117.529,230.814,117.255,231.039,116.981,231.265
	L116.981,231.265z M110.789,228.362c0.988,0.072,1.761,1.18,2.036,1.853c0.213,0.522,0.071,1.149-0.349,1.552
	c-2.227,1.933-4.55,3.753-6.825,5.628c-0.564,0.442-1.402,0.383-1.904-0.14c-0.829-0.955-1.593-2.123-0.727-2.955
	c2.227-1.932,4.549-3.752,6.824-5.628C110.114,228.461,110.292,228.35,110.789,228.362L110.789,228.362z M104.112,235.342
	l0.676,0.821l6.596-5.437l-0.677-0.821C108.509,231.717,106.31,233.53,104.112,235.342L104.112,235.342z M292.523,218.899
	c-0.249-0.322-0.719-0.336-1.082-0.329c-0.424,0.016-1.005,0.153-1.005,0.153l-6.728,11.18l5.872,2.87l1.502,0.734l1.135-0.375
	l13.959-4.613l5.738-1.896l0.007-0.041c0.519-3.204-1.76-6.476-5.483-7.189c-3.811-0.729-7.79,0.387-11.471,2.002
	c0,0-0.014,0.004-0.039,0.008c-0.12,0.056-0.238,0.112-0.356,0.169c-0.097,0.048-0.207,0.101-0.33,0.162l-0.083,0.041
	c0,0-0.111,0.02-0.264,0.001l-0.343,0.028l-0.43-0.431c0,0-0.014-0.12-0.04-0.308c-0.019-0.062-0.036-0.129-0.049-0.201
	c-0.114-0.582-0.203-1.282-0.373-1.71C292.617,219.049,292.571,218.961,292.523,218.899L292.523,218.899L292.523,218.899z
	 M202.517,226.34c1.01,0.023,2.015,0.146,3,0.37l0.06,0.014c0-13.517,0.127-27.035-0.002-40.552
	c-0.196-12.386-11.118-23.698-24.214-23.68c-8.602,0.011-17.068,4.208-22.262,11.047c-3.658,4.817-5.672,10.815-5.691,16.905v41.487
	c0.092-0.103,0.185-0.205,0.279-0.307c0.492-0.522,1.016-1.01,1.569-1.462c0.274-0.236,0.561-0.463,0.863-0.681
	c2.773-2,6.147-3.096,9.603-3.143l0.046-0.001h0.029h0.053h9.824v-7.246c-1.526-0.126-3.002-0.39-4.393-0.899
	c-5.374-1.968-9.219-7.385-9.256-13.248v-2.431c-0.807-0.162-0.837-0.227-1.15-0.368c-3.12-1.407-4.119-6.132-1.609-8.665
	c1.117-1.128,3.146-2.085,3.356-0.743c0.118,1.437,0.245,3.017,0.886,4.107c0,0,0.711-2.92,0.993-5.444
	c0.359-3.221,0.57-6.457,0.727-9.694c0,0-0.005-0.926,0.835-0.901c0.447,0.08-0.096-0.144,1.071,0.664
	c5.766,3.919,13.13,5.493,20.246,5.309c2.933-0.076,5.899-0.634,8.527-1.944c0,0,1.027-0.115,1.084,0.671v6.439
	c0.228,0.032,0.33,0.057,0.33,0.057c3.483,0.765,5.407,5.368,3.286,8.354c-0.827,1.164-2.125,1.959-3.55,2.198l-0.066,0.01
	c0,1.415,0.008,2.83-0.001,4.245c-0.016,0.859-0.046,1.033-0.113,1.526c-0.699,5.11-4.887,9.485-10.076,10.495
	c0.101,2.505,0.192,5.028-0.02,7.508c5.155-0.002,10.311-0.029,15.467,0h0.143l0.013,0.001h0.016
	C202.452,226.338,202.484,226.339,202.517,226.34L202.517,226.34z M185.273,219.029l-0.102,0.005l-0.006,0.001
	c-0.17,0.009-0.232,0.01-0.397,0.011l-0.016,0.001c-2.526,0.016-5.101,0.202-7.578,0.126v6.943c0.397,0.273,0.399,0.203,0.968,0.256
	c1.895,0.213,3.607,1.419,4.447,3.137c0.182-0.024,0.372-0.059,0.562-0.131l0.006-0.002c0.918-0.409,1.64-1.231,1.952-2.204
	c-0.079-0.469,0.164-1.013,0.167-1.02v-0.001v-7.122L185.273,219.029L185.273,219.029z M124.341,217.19
	c0.988,0.071,1.762,1.18,2.037,1.852c0.213,0.522,0.071,1.149-0.35,1.553c-2.226,1.933-4.549,3.753-6.824,5.628
	c-0.564,0.442-1.402,0.383-1.905-0.141c-0.828-0.954-1.592-2.123-0.727-2.954c2.227-1.933,4.55-3.752,6.825-5.628
	C123.666,217.289,123.84,217.177,124.341,217.19L124.341,217.19z M106.712,215.493c0.368,0.026,0.705,0.185,0.959,0.451
	c1.933,2.227,3.753,4.549,5.628,6.824c0.442,0.564,0.383,1.402-0.14,1.904c-0.952,0.826-2.117,1.6-2.955,0.727
	c-1.932-2.227-3.752-4.549-5.628-6.824c-0.44-0.562-0.382-1.401,0.141-1.905C105.352,216.12,105.773,215.47,106.712,215.493
	L106.712,215.493z M117.664,224.17l0.677,0.82l6.595-5.436l-0.677-0.821C122.061,220.545,119.863,222.357,117.664,224.17
	L117.664,224.17z M105.809,217.712l5.437,6.595l0.821-0.676l-5.437-6.595C106.356,217.261,106.083,217.487,105.809,217.712
	L105.809,217.712z M186.075,217.462c0.717-0.116,1.41-0.281,2.07-0.508c4.232-1.458,7.317-5.696,7.346-10.302v-4.785
	c0.074-1.038,0.751-0.649,1.62-0.851c3.058-0.712,3.976-5.898,0.629-7.32c-0.634-0.27-1.611-0.315-1.611-0.315
	c-0.526-0.118-0.602-0.238-0.638-0.741v-5.964c-4.151,1.72-8.81,1.847-13.347,1.32c-5.448-0.633-10.894-2.094-15.467-5.029
	c0,0-0.017,0.114-0.021,0.183c-0.274,4.883-0.084,10.133-1.764,14.301c-0.345,0.855-1.64,1.672-2.568,0.324
	c-0.755-1.097-0.934-2.535-1.1-3.912c-2.842,1.55-2.363,6.941,1.608,7.246c0,0,0.644,0.102,0.693,0.748
	c0,2.545-0.086,5.095,0.764,7.419c1.74,4.751,6.501,8.172,11.679,8.271c0.13,0.001,0.261,0.002,0.392,0.004l0.005-0.001l0.058-0.002
	h0.003c0.973-0.036,1.951-0.024,2.928,0h5.241c0.218-0.002,0.444-0.008,0.654-0.015c0.231-0.019,0.461-0.042,0.691-0.068
	c0.06-0.005,0.06-0.005,0.12-0.004L186.075,217.462L186.075,217.462z M132.29,151.817c0.368,0.027,0.705,0.186,0.96,0.451
	c1.933,2.227,3.753,4.549,5.628,6.825c0.442,0.564,0.383,1.401-0.141,1.904c-0.954,0.828-2.122,1.592-2.954,0.727
	c-1.933-2.227-3.752-4.549-5.628-6.825c-0.441-0.563-0.382-1.401,0.141-1.904C130.932,152.443,131.347,151.794,132.29,151.817
	L132.29,151.817z M131.388,154.037l5.437,6.595l0.82-0.677l-5.437-6.595C131.935,153.586,131.661,153.811,131.388,154.037
	L131.388,154.037z M125.195,151.134c0.99,0.072,1.762,1.18,2.037,1.853c0.213,0.522,0.07,1.149-0.35,1.553
	c-2.227,1.933-4.549,3.752-6.824,5.628c-0.565,0.441-1.402,0.382-1.905-0.141c-0.826-0.952-1.599-2.117-0.727-2.955
	c2.227-1.933,4.55-3.752,6.825-5.628C124.52,151.234,124.694,151.122,125.195,151.134L125.195,151.134z M118.518,158.114
	l0.677,0.821l6.595-5.437l-0.677-0.821C122.915,154.489,120.717,156.302,118.518,158.114L118.518,158.114z M138.748,139.962
	c0.989,0.071,1.761,1.18,2.036,1.852c0.213,0.522,0.071,1.149-0.35,1.553c-2.226,1.933-4.549,3.753-6.824,5.628
	c-0.564,0.441-1.401,0.383-1.904-0.141c-0.826-0.951-1.6-2.116-0.727-2.954c2.226-1.933,4.549-3.752,6.824-5.628
	C138.073,140.061,138.247,139.95,138.748,139.962L138.748,139.962z M121.118,138.265c0.368,0.026,0.705,0.185,0.96,0.451
	c1.932,2.227,3.752,4.549,5.628,6.824c0.441,0.564,0.382,1.402-0.141,1.905c-0.954,0.828-2.123,1.592-2.954,0.726
	c-1.933-2.226-3.753-4.549-5.628-6.824c-0.442-0.564-0.383-1.401,0.14-1.904C119.759,138.891,120.175,138.242,121.118,138.265
	L121.118,138.265z M132.071,146.942l0.676,0.82l6.595-5.436l-0.676-0.821C136.468,143.317,134.269,145.129,132.071,146.942
	L132.071,146.942z M120.215,140.484l5.437,6.595l0.821-0.676l-5.437-6.595C120.763,140.033,120.489,140.259,120.215,140.484
	L120.215,140.484z M197.093,131.332c0.368,0.027,0.705,0.186,0.96,0.451c1.932,2.227,3.752,4.549,5.628,6.825
	c0.441,0.563,0.382,1.401-0.141,1.904c-0.952,0.826-2.116,1.599-2.954,0.727c-1.933-2.227-3.753-4.549-5.628-6.825
	c-0.44-0.561-0.383-1.401,0.14-1.904C195.734,131.959,196.154,131.309,197.093,131.332L197.093,131.332z M196.19,133.552
	l5.437,6.595l0.821-0.677l-5.437-6.595C196.738,133.101,196.464,133.326,196.19,133.552L196.19,133.552z M189.998,130.649
	c0.988,0.072,1.762,1.18,2.036,1.853c0.213,0.522,0.071,1.148-0.349,1.553c-2.227,1.932-4.55,3.752-6.825,5.627
	c-0.564,0.442-1.402,0.383-1.904-0.14c-0.826-0.952-1.599-2.117-0.727-2.955c2.227-1.932,4.549-3.752,6.824-5.628
	C189.323,130.748,189.501,130.637,189.998,130.649L189.998,130.649z M183.321,137.629l0.677,0.821l6.595-5.437l-0.677-0.821
	C187.718,134.004,185.519,135.817,183.321,137.629L183.321,137.629z M203.55,119.477c0.989,0.071,1.762,1.18,2.037,1.852
	c0.213,0.522,0.071,1.149-0.35,1.553c-2.227,1.933-4.549,3.753-6.824,5.628c-0.564,0.442-1.402,0.383-1.905-0.141
	c-0.828-0.954-1.592-2.122-0.727-2.954c2.227-1.932,4.55-3.752,6.825-5.628C202.875,119.576,203.05,119.465,203.55,119.477
	L203.55,119.477z M185.921,117.78c0.368,0.026,0.705,0.185,0.959,0.451c1.933,2.227,3.753,4.549,5.628,6.824
	c0.44,0.562,0.383,1.401-0.14,1.904c-0.955,0.829-2.123,1.593-2.955,0.727c-1.932-2.227-3.752-4.549-5.628-6.824
	c-0.441-0.564-0.382-1.402,0.141-1.904C184.562,118.405,184.976,117.757,185.921,117.78L185.921,117.78z M196.873,126.457
	l0.677,0.82l6.595-5.436l-0.676-0.821C201.27,122.832,199.072,124.644,196.873,126.457L196.873,126.457z M185.018,119.999
	l5.437,6.595l0.821-0.676l-5.437-6.595C185.565,119.548,185.292,119.774,185.018,119.999L185.018,119.999z"></path>
</svg>